<?xml version="1.0" standalone="no"?>
<!DOCTYPE svg PUBLIC "-//W3C//DTD SVG 1.1//EN" "http://www.w3.org/Graphics/SVG/1.1/DTD/svg11.dtd" >
<svg>
<metadata>
Created by FontForge 20090622 at Tue Jul 19 15:30:00 2016
 By deploy user
Copyright &#194;&#169; 1981 - 2006 Linotype GmbH, www.linotype.com. All rights reserved. Copyright &#194;&#169; 1989 - 2002 Adobe Systems Incorporated.  All Rights Reserved.
</metadata>
<defs>
<font id="AvenirLTStd-Medium" horiz-adv-x="556" >
  <font-face 
    font-family="Avenir LT Std 65 Medium"
    font-weight="500"
    font-stretch="normal"
    units-per-em="1000"
    panose-1="2 11 6 3 2 2 3 2 2 4"
    ascent="756"
    descent="-244"
    x-height="474"
    cap-height="708"
    bbox="-166 -282 1036 924"
    underline-thickness="50"
    underline-position="-50"
    unicode-range="U+0020-U+FB02"
  />
<missing-glyph horiz-adv-x="500" 
d="M0 0v700h500v-700h-500zM250 395l170 255h-340zM280 350l170 -255v510zM80 50h340l-170 255zM50 605v-510l170 255z" />
    <glyph glyph-name="fi" unicode="fi" 
d="M390 0v474h90v-474h-90zM370 643q0 27 19.5 46.5t46.5 19.5t46.5 -19.5t19.5 -46.5t-19.5 -46.5t-46.5 -19.5t-46.5 19.5t-19.5 46.5zM103 0v396h-102v78h102v106q0 97 37.5 142.5t124.5 45.5q38 0 67 -7l-10 -80q-22 9 -51 9q-46 0 -61.5 -26t-15.5 -81v-109h107v-78
h-108v-396h-90z" />
    <glyph glyph-name="fl" unicode="fl" 
d="M391 0v756h90v-756h-90zM103 0v396h-102v78h102v106q0 97 37.5 142.5t124.5 45.5q38 0 67 -7l-10 -80q-22 9 -51 9q-46 0 -61.5 -26t-15.5 -81v-109h107v-78h-108v-396h-90z" />
    <glyph glyph-name=".notdef" horiz-adv-x="500" 
d="M0 0v700h500v-700h-500zM250 395l170 255h-340zM280 350l170 -255v510zM80 50h340l-170 255zM50 605v-510l170 255z" />
    <glyph glyph-name=".null" horiz-adv-x="0" 
 />
    <glyph glyph-name="nonmarkingreturn" horiz-adv-x="333" 
 />
    <glyph glyph-name="space" unicode=" " horiz-adv-x="278" 
 />
    <glyph glyph-name="exclam" unicode="!" horiz-adv-x="278" 
d="M185 708v-504h-96v504h96zM73 60q0 27 19.5 46.5t46.5 19.5t46.5 -19.5t19.5 -46.5t-19.5 -46.5t-46.5 -19.5t-46.5 19.5t-19.5 46.5z" />
    <glyph glyph-name="quotedbl" unicode="&#x22;" horiz-adv-x="519" 
d="M146 462v246h78v-246h-78zM295 462v246h78v-246h-78z" />
    <glyph glyph-name="numbersign" unicode="#" 
d="M92 0l28 204h-95v78h106l20 144h-95v78h106l28 204h79l-28 -204h116l28 204h79l-28 -204h95v-78h-106l-20 -144h95v-78h-106l-28 -204h-79l28 204h-116l-28 -204h-79zM346 426h-116l-20 -144h116z" />
    <glyph glyph-name="dollar" unicode="$" 
d="M300 792v-72q124 0 198 -77l-72 -70q-47 61 -126 63v-236l-2 -1q52 -14 84.5 -27t66.5 -36t50.5 -58t16.5 -84q0 -88 -62.5 -144.5t-153.5 -61.5v-72h-54v72q-146 0 -220 96l77 69q22 -37 61 -58t82 -23v246q-94 24 -149 71t-55 134q0 82 60 136t144 61v72h54zM246 414
v222q-49 -8 -78.5 -37.5t-29.5 -75.5q0 -78 108 -109zM300 304v-232q52 6 86 37.5t34 80.5q0 47 -32 71.5t-88 42.5z" />
    <glyph glyph-name="percent" unicode="%" horiz-adv-x="852" 
d="M37 549q0 73 51.5 125t125.5 52t125.5 -52t51.5 -125t-51.5 -125t-125.5 -52t-125.5 52t-51.5 125zM115 549q0 -41 29 -70t70 -29t70 29t29 70t-29 70t-70 29t-70 -29t-29 -70zM461 159q0 73 51.5 125t125.5 52t125.5 -52t51.5 -125t-51.5 -125t-125.5 -52t-125.5 52
t-51.5 125zM539 159q0 -41 29 -70t70 -29t70 29t29 70t-29 70t-70 29t-70 -29t-29 -70zM680 709l-445 -740l-60 31l445 740z" />
    <glyph glyph-name="ampersand" unicode="&#x26;" horiz-adv-x="722" 
d="M551 165l161 -165h-129l-87 94q-47 -57 -98 -84.5t-119 -27.5q-113 0 -172.5 60t-59.5 145q0 126 161 203q-41 44 -62 80.5t-21 83.5q0 78 54.5 122t134.5 44q79 0 131 -41.5t52 -118.5q0 -105 -147 -182l140 -146l89 145h109zM401 560q0 35 -24 55.5t-62 20.5
q-40 0 -67 -22.5t-27 -60.5q0 -48 70 -118q34 19 52.5 31t38 38t19.5 56zM439 156l-171 178q-27 -16 -43.5 -27t-36.5 -29t-29.5 -40t-9.5 -48q0 -51 40.5 -87.5t92.5 -36.5q81 0 157 90z" />
    <glyph glyph-name="quotesingle" unicode="'" horiz-adv-x="278" 
d="M178 708v-246h-78v246h78z" />
    <glyph glyph-name="parenleft" unicode="(" horiz-adv-x="278" 
d="M194 732l60 -38q-67 -106 -97.5 -198t-30.5 -208q0 -228 128 -404l-60 -40q-146 198 -146 444q0 116 37.5 231t108.5 213z" />
    <glyph glyph-name="parenright" unicode=")" horiz-adv-x="278" 
d="M84 -156l-60 38q67 106 97.5 198t30.5 208q0 228 -128 404l60 40q146 -198 146 -444q0 -116 -37.5 -231t-108.5 -213z" />
    <glyph glyph-name="asterisk" unicode="*" horiz-adv-x="464" 
d="M269 708v-147l139 47l21 -67l-139 -45l88 -119l-55 -41l-91 122l-89 -120l-55 41l89 117l-142 48l21 65l141 -48v147h72z" />
    <glyph glyph-name="plus" unicode="+" horiz-adv-x="666" 
d="M66 264v78h228v228h78v-228h228v-78h-228v-228h-78v228h-228z" />
    <glyph glyph-name="comma" unicode="," horiz-adv-x="278" 
d="M214 114l-84 -246h-82l69 246h97z" />
    <glyph glyph-name="hyphen" unicode="-" horiz-adv-x="316" 
d="M281 284v-84h-246v84h246z" />
    <glyph glyph-name="period" unicode="." horiz-adv-x="278" 
d="M139 -6q-27 0 -46.5 19.5t-19.5 46.5t19.5 46.5t46.5 19.5t46.5 -19.5t19.5 -46.5t-19.5 -46.5t-46.5 -19.5z" />
    <glyph glyph-name="slash" unicode="/" horiz-adv-x="389" 
d="M389 726l-319 -770l-70 26l320 770z" />
    <glyph glyph-name="zero" unicode="0" 
d="M34 354q0 51 6 98t22.5 97.5t42.5 87t70.5 60t102.5 23.5t102.5 -23.5t70.5 -60t42.5 -87t22.5 -97.5t6 -98q0 -63 -10.5 -121t-35.5 -116.5t-76 -93.5t-122 -35t-122 35t-76 93.5t-35.5 116.5t-10.5 121zM130 354q0 -44 5 -84.5t18.5 -89.5t45.5 -78.5t79 -29.5t79 29.5
t45.5 78.5t18.5 89.5t5 84.5q0 282 -148 282t-148 -282z" />
    <glyph glyph-name="one" unicode="1" 
d="M270 0v598l-130 -120l-56 67l197 163h85v-708h-96z" />
    <glyph glyph-name="two" unicode="2" 
d="M46 0v102l284 282q78 76 78 145q0 51 -35 82t-87 31q-51 0 -85.5 -29t-43.5 -80l-104 9q14 91 76.5 137.5t157.5 46.5q96 0 159.5 -51t63.5 -145q0 -63 -32 -113.5t-91 -107.5l-233 -225h356v-84h-464z" />
    <glyph glyph-name="three" unicode="3" 
d="M46 142l101 31q18 -53 47 -77t83 -24q57 0 97 36t40 92q0 42 -17.5 70t-49.5 40.5t-62 17t-70 4.5v84q104 0 142.5 27t38.5 84q0 55 -33 85t-86 30q-39 0 -70.5 -22.5t-47.5 -59.5l-98 33q27 65 84 99t130 34q93 0 155 -49.5t62 -143.5q0 -56 -33.5 -100t-87.5 -60v-2
q65 -11 102 -61t37 -117q0 -97 -68 -151t-168 -54q-85 0 -145 38.5t-83 115.5z" />
    <glyph glyph-name="four" unicode="4" 
d="M336 0v156h-302v98l282 454h116v-468h100v-84h-100v-156h-96zM336 240v354h-2l-216 -354h218z" />
    <glyph glyph-name="five" unicode="5" 
d="M471 708v-90h-287l-3 -177q33 15 95 15q99 0 159.5 -65t60.5 -169t-71.5 -169t-177.5 -65q-73 0 -131 37.5t-82 105.5l97 33q35 -92 131 -92q59 0 98.5 39.5t39.5 105.5q0 75 -46.5 115t-124.5 40q-72 0 -146 -37l8 373h380z" />
    <glyph glyph-name="six" unicode="6" 
d="M398 708l-178 -274h4q33 16 78 16q86 0 152.5 -58t66.5 -166q0 -113 -69 -175.5t-174 -62.5q-102 0 -172.5 63.5t-70.5 164.5q0 60 17 105.5t54 103.5l179 283h113zM131 219q0 -65 40.5 -106t106.5 -41t106.5 41t40.5 106t-40.5 106t-106.5 41t-106.5 -41t-40.5 -106z
" />
    <glyph glyph-name="seven" unicode="7" 
d="M97 0l287 624h-342v84h445v-82l-282 -626h-108z" />
    <glyph glyph-name="eight" unicode="8" 
d="M278 -12q-99 0 -165 58.5t-66 156.5q0 64 37.5 110.5t97.5 62.5v3q-45 12 -78 54.5t-33 110.5q0 78 60.5 127t146.5 49t146.5 -49t60.5 -127q0 -68 -33 -110.5t-78 -54.5v-3q60 -16 97.5 -62.5t37.5 -110.5q0 -98 -66 -156.5t-165 -58.5zM167 530q0 -44 30 -78t81 -34
q53 0 82 32.5t29 79.5q0 49 -31 80.5t-80 31.5q-47 0 -79 -31.5t-32 -80.5zM278 72q60 0 97.5 36.5t37.5 94.5q0 62 -38 96t-97 35q-59 -1 -97 -38t-38 -93q0 -60 39 -95.5t96 -35.5z" />
    <glyph glyph-name="nine" unicode="9" 
d="M158 0l178 274h-4q-33 -16 -78 -16q-86 0 -152.5 58t-66.5 166q0 113 69 175.5t174 62.5q102 0 172.5 -63.5t70.5 -164.5q0 -60 -17 -105.5t-54 -103.5l-179 -283h-113zM425 489q0 65 -40.5 106t-106.5 41t-106.5 -41t-40.5 -106t40.5 -106t106.5 -41t106.5 41t40.5 106z
" />
    <glyph glyph-name="colon" unicode=":" horiz-adv-x="278" 
d="M139 348q-27 0 -46.5 19.5t-19.5 46.5t19.5 46.5t46.5 19.5t46.5 -19.5t19.5 -46.5t-19.5 -46.5t-46.5 -19.5zM73 60q0 27 19.5 46.5t46.5 19.5t46.5 -19.5t19.5 -46.5t-19.5 -46.5t-46.5 -19.5t-46.5 19.5t-19.5 46.5z" />
    <glyph glyph-name="semicolon" unicode=";" horiz-adv-x="278" 
d="M214 114l-84 -246h-82l69 246h97zM73 413q0 27 19.5 46.5t46.5 19.5t46.5 -19.5t19.5 -46.5t-19.5 -46.5t-46.5 -19.5t-46.5 19.5t-19.5 46.5z" />
    <glyph glyph-name="less" unicode="&#x3c;" horiz-adv-x="666" 
d="M600 121v-78l-534 219v82l534 220v-79l-452 -182z" />
    <glyph glyph-name="equal" unicode="=" horiz-adv-x="666" 
d="M66 420h534v-78h-534v78zM66 263h534v-78h-534v78z" />
    <glyph glyph-name="greater" unicode="&#x3e;" horiz-adv-x="666" 
d="M66 485v78l534 -219v-82l-534 -220v79l452 182z" />
    <glyph glyph-name="question" unicode="?" horiz-adv-x="500" 
d="M306 198h-96v61q0 36 8.5 59t19 35.5t43.5 43.5q3 3 20.5 19.5t22.5 22t17.5 20.5t17 24.5t9 24t4.5 28.5q0 45 -30.5 75.5t-75.5 30.5q-48 0 -79 -31t-37 -81l-102 10q13 86 72.5 136t147.5 50q87 0 143.5 -49.5t56.5 -135.5q0 -78 -42 -120l-70 -71q-32 -33 -41 -50.5
t-9 -57.5v-44zM191 60q0 27 19.5 46.5t46.5 19.5t46.5 -19.5t19.5 -46.5t-19.5 -46.5t-46.5 -19.5t-46.5 19.5t-19.5 46.5z" />
    <glyph glyph-name="at" unicode="@" horiz-adv-x="800" 
d="M422 485q-67 0 -106 -55t-39 -132q0 -80 71 -80q57 0 97 58.5t40 120.5q0 37 -16.5 62.5t-46.5 25.5zM615 544l-84 -277q-5 -17 -5 -25q0 -24 29 -24q44 0 83.5 59.5t39.5 136.5q0 114 -75.5 180t-186.5 66q-127 0 -210.5 -88.5t-83.5 -219.5q0 -132 86 -218t213 -86
q73 0 135.5 26.5t97.5 74.5h79q-42 -75 -129.5 -121t-184.5 -46q-158 0 -266.5 108.5t-108.5 265.5q0 153 109 261.5t262 108.5q142 0 241.5 -87t99.5 -217q0 -61 -23.5 -115.5t-59 -90t-76 -56t-76.5 -20.5q-26 0 -44 17t-19 47h-4q-60 -64 -124 -64q-62 0 -99.5 45
t-37.5 112q0 104 63 185t161 81q82 0 107 -76h2l16 57h73z" />
    <glyph glyph-name="A" unicode="A" horiz-adv-x="704" 
d="M1 0l312 708h87l303 -708h-112l-71 175h-337l-70 -175h-112zM217 259h268l-132 325h-2z" />
    <glyph glyph-name="B" unicode="B" horiz-adv-x="630" 
d="M91 0v708h246q97 0 156 -45t59 -132q0 -115 -122 -156v-2q64 -5 108.5 -55t44.5 -121q0 -92 -70.5 -144.5t-178.5 -52.5h-243zM187 624v-210h131q59 0 95.5 25.5t36.5 80.5q0 45 -28.5 74.5t-83.5 29.5h-151zM187 330v-246h141q35 0 66.5 8t59 37t27.5 75q0 62 -40.5 94
t-111.5 32h-142z" />
    <glyph glyph-name="C" unicode="C" horiz-adv-x="704" 
d="M664 616l-80 -61q-30 38 -75.5 59.5t-95.5 21.5q-117 0 -190.5 -82.5t-73.5 -205.5q0 -116 72 -196t192 -80q117 0 185 95l81 -61q-11 -15 -29 -32t-50.5 -40t-82.5 -37.5t-106 -14.5q-108 0 -193 55t-128 137.5t-43 173.5q0 166 103 272t266 106q73 0 140 -28t108 -82z
" />
    <glyph glyph-name="D" unicode="D" horiz-adv-x="741" 
d="M75 0v708h247q86 0 153.5 -24.5t107.5 -62t66 -86.5t35.5 -93.5t9.5 -87.5q0 -69 -25.5 -132t-73 -113t-122.5 -79.5t-167 -29.5h-231zM171 618v-528h121q128 0 214 69t86 195q0 31 -6.5 62.5t-25 69t-48 66t-80.5 47.5t-117 19h-144z" />
    <glyph glyph-name="E" unicode="E" horiz-adv-x="611" 
d="M91 0v708h457v-90h-361v-211h336v-90h-336v-227h379v-90h-475z" />
    <glyph glyph-name="F" unicode="F" horiz-adv-x="574" 
d="M91 0v708h445v-90h-349v-222h325v-90h-325v-306h-96z" />
    <glyph glyph-name="G" unicode="G" horiz-adv-x="778" 
d="M441 396h253v-349q-50 -30 -125 -47.5t-143 -17.5q-174 0 -276.5 107.5t-102.5 264.5q0 159 104 265.5t265 106.5q175 0 264 -92l-68 -73q-78 75 -196 75q-119 0 -193 -81.5t-74 -200.5q0 -120 79 -201t196 -81q108 0 174 37v197h-157v90z" />
    <glyph glyph-name="H" unicode="H" horiz-adv-x="741" 
d="M91 0v708h96v-294h367v294h96v-708h-96v324h-367v-324h-96z" />
    <glyph glyph-name="I" unicode="I" horiz-adv-x="278" 
d="M91 0v708h96v-708h-96z" />
    <glyph glyph-name="J" unicode="J" horiz-adv-x="482" 
d="M312 233v475h96v-506q0 -51 -14 -91t-35.5 -63.5t-50.5 -39t-55 -21t-52 -5.5q-77 0 -127.5 39.5t-64.5 115.5l94 21q18 -86 98 -86q45 0 71 25t33 57.5t7 78.5z" />
    <glyph glyph-name="K" unicode="K" horiz-adv-x="648" 
d="M91 0v708h96v-306h8l313 306h134l-342 -327l365 -381h-140l-330 354h-8v-354h-96z" />
    <glyph glyph-name="L" unicode="L" horiz-adv-x="519" 
d="M91 0v708h96v-618h325v-90h-421z" />
    <glyph glyph-name="M" unicode="M" horiz-adv-x="906" 
d="M84 0v708h143l225 -536h4l223 536h143v-708h-96v582h-2l-239 -582h-64l-239 582h-2v-582h-96z" />
    <glyph glyph-name="N" unicode="N" horiz-adv-x="796" 
d="M91 0v708h126l390 -582h2v582h96v-708h-122l-394 582h-2v-582h-96z" />
    <glyph glyph-name="O" unicode="O" horiz-adv-x="832" 
d="M416 -18q-161 0 -265 106.5t-104 265.5t104 265.5t265 106.5t265 -106.5t104 -265.5t-104 -265.5t-265 -106.5zM416 72q119 0 193 81.5t74 200.5t-74 200.5t-193 81.5t-193 -81.5t-74 -200.5t74 -200.5t193 -81.5z" />
    <glyph glyph-name="P" unicode="P" horiz-adv-x="593" 
d="M91 0v708h249q65 0 111.5 -18t70.5 -48.5t34.5 -62.5t10.5 -69t-10.5 -69t-34.5 -62.5t-70.5 -48.5t-111.5 -18h-153v-312h-96zM187 624v-228h126q152 0 152 114t-152 114h-126z" />
    <glyph glyph-name="Q" unicode="Q" horiz-adv-x="832" 
d="M822 84v-84h-408q-153 0 -260 103t-107 259t105 260t261 104q150 0 255.5 -102t105.5 -252q0 -93 -43 -172t-119 -114v-2h210zM410 90q115 0 188.5 80t73.5 198q0 113 -75 190.5t-187 77.5q-110 0 -185.5 -77.5t-75.5 -188.5q0 -118 73.5 -199t187.5 -81z" />
    <glyph glyph-name="R" unicode="R" horiz-adv-x="611" 
d="M91 0v708h249q65 0 111.5 -18t70.5 -48.5t34.5 -62.5t10.5 -69q0 -70 -48 -124t-126 -63l201 -323h-120l-180 312h-107v-312h-96zM187 624v-228h126q152 0 152 114t-152 114h-126z" />
    <glyph glyph-name="S" unicode="S" 
d="M33 80l79 68q50 -76 150 -76q53 0 97 32t44 86q0 44 -36 70t-87.5 41t-102.5 35t-87 68t-36 124q0 33 14 66.5t41.5 63.5t75.5 49t109 19q138 0 204 -81l-78 -71q-18 28 -51.5 45t-74.5 17q-72 0 -105 -33.5t-33 -74.5q0 -42 26 -69t64.5 -38.5t84 -27.5t84 -33.5
t64.5 -58t26 -100.5q0 -100 -70.5 -159.5t-175.5 -59.5q-71 0 -131 24.5t-95 73.5z" />
    <glyph glyph-name="T" unicode="T" horiz-adv-x="574" 
d="M239 0v618h-228v90h552v-90h-228v-618h-96z" />
    <glyph glyph-name="U" unicode="U" horiz-adv-x="704" 
d="M78 708h96v-434q0 -79 43.5 -140.5t134.5 -61.5t134.5 61.5t43.5 140.5v434h96v-449q0 -122 -78 -199.5t-196 -77.5t-196 77.5t-78 199.5v449z" />
    <glyph glyph-name="V" unicode="V" horiz-adv-x="630" 
d="M267 0l-273 708h111l208 -576h2l216 576h105l-279 -708h-90z" />
    <glyph glyph-name="W" unicode="W" horiz-adv-x="962" 
d="M208 0l-207 708h100l156 -566h2l167 566h110l167 -566h2l156 566h100l-206 -708h-101l-172 578h-2l-171 -578h-101z" />
    <glyph glyph-name="X" unicode="X" horiz-adv-x="648" 
d="M-2 0l257 372l-238 336h123l184 -272l182 272h120l-236 -335l260 -373h-126l-203 307l-204 -307h-119z" />
    <glyph glyph-name="Y" unicode="Y" horiz-adv-x="612" 
d="M258 0v302l-268 406h123l193 -311l199 311h117l-268 -406v-302h-96z" />
    <glyph glyph-name="Z" unicode="Z" horiz-adv-x="593" 
d="M32 0v90l403 528h-391v90h511v-90l-401 -528h407v-90h-529z" />
    <glyph glyph-name="bracketleft" unicode="[" horiz-adv-x="278" 
d="M72 -156v888h174v-66h-90v-756h90v-66h-174z" />
    <glyph glyph-name="backslash" unicode="\" horiz-adv-x="389" 
d="M319 -44l-319 770l69 26l320 -770z" />
    <glyph glyph-name="bracketright" unicode="]" horiz-adv-x="278" 
d="M32 -156v66h90v756h-90v66h174v-888h-174z" />
    <glyph glyph-name="asciicircum" unicode="^" horiz-adv-x="666" 
d="M80 276l213 432h80l213 -432h-83l-170 353l-170 -353h-83z" />
    <glyph glyph-name="underscore" unicode="_" horiz-adv-x="500" 
d="M0 -125v50h500v-50h-500z" />
    <glyph glyph-name="grave" unicode="`" horiz-adv-x="240" 
d="M82 708l104 -144h-83l-149 144h128z" />
    <glyph glyph-name="a" unicode="a" horiz-adv-x="519" 
d="M124 360l-54 56q74 70 188 70q99 0 148.5 -45.5t49.5 -112.5v-242q0 -53 4 -86h-80q-3 36 -3 72h-2q-55 -84 -166 -84q-69 0 -116.5 38t-47.5 104q0 86 71.5 125t189.5 39h66v20q0 40 -29.5 70t-83.5 30q-32 0 -60.5 -10t-38.5 -17t-36 -27zM372 228h-48q-189 0 -189 -91
q0 -77 102 -77q69 0 102 41t33 97v30z" />
    <glyph glyph-name="b" unicode="b" horiz-adv-x="611" 
d="M68 0v756h90v-350h2q24 37 69 58.5t96 21.5q108 0 174.5 -70.5t66.5 -178.5q0 -107 -66.5 -178t-174.5 -71q-49 0 -94 21.5t-71 58.5h-2v-68h-90zM314 72q71 0 113.5 46t42.5 119t-42.5 119t-113.5 46t-113.5 -46t-42.5 -119t42.5 -119t113.5 -46z" />
    <glyph glyph-name="c" unicode="c" horiz-adv-x="482" 
d="M475 410l-68 -62q-50 53 -118 53q-70 0 -109 -48.5t-39 -119.5q0 -68 42.5 -114.5t110.5 -46.5q70 0 115 53l64 -64q-66 -73 -180 -73q-110 0 -179 69t-69 178q0 110 69 180t179 70q113 0 182 -75z" />
    <glyph glyph-name="d" unicode="d" horiz-adv-x="611" 
d="M543 756v-756h-90v68h-2q-26 -37 -71 -58.5t-94 -21.5q-108 0 -174.5 71t-66.5 178q0 108 66.5 178.5t174.5 70.5q51 0 96 -21.5t69 -58.5h2v350h90zM297 72q71 0 113.5 46t42.5 119t-42.5 119t-113.5 46t-113.5 -46t-42.5 -119t42.5 -119t113.5 -46z" />
    <glyph glyph-name="e" unicode="e" 
d="M516 204h-380q0 -60 47.5 -99t112.5 -39q72 0 130 71l68 -52q-75 -97 -210 -97q-110 0 -177 70.5t-67 178.5q0 107 69.5 178t175.5 71q116 0 173.5 -73.5t57.5 -176.5v-32zM136 276h284q-2 62 -36.5 100t-100.5 38q-63 0 -105 -43.5t-42 -94.5z" />
    <glyph glyph-name="f" unicode="f" horiz-adv-x="333" 
d="M103 0v396h-102v78h102v106q0 97 37.5 142.5t124.5 45.5q38 0 67 -7l-10 -80q-22 9 -51 9q-46 0 -61.5 -26t-15.5 -81v-109h107v-78h-108v-396h-90z" />
    <glyph glyph-name="g" unicode="g" horiz-adv-x="611" 
d="M543 474v-470q0 -108 -71.5 -176t-187.5 -68q-140 0 -232 85l61 76q72 -77 169 -77q92 0 131.5 47t39.5 117v70h-3q-25 -41 -69 -62.5t-95 -21.5q-104 0 -173 69.5t-68 173.5q0 107 66.5 178t174.5 71q49 0 94 -21.5t71 -58.5h2v68h90zM297 402q-71 0 -113.5 -46
t-42.5 -119q0 -72 42 -115.5t114 -43.5t114 43.5t42 115.5q0 73 -42.5 119t-113.5 46z" />
    <glyph glyph-name="h" unicode="h" 
d="M68 0v756h90v-355h2q18 38 60 61.5t96 23.5q74 0 123 -45.5t49 -135.5v-305h-90v280q0 63 -30.5 92.5t-77.5 29.5q-59 0 -95.5 -39.5t-36.5 -118.5v-244h-90z" />
    <glyph glyph-name="i" unicode="i" horiz-adv-x="240" 
d="M75 0v474h90v-474h-90zM54 644q0 27 19.5 46.5t46.5 19.5t46.5 -19.5t19.5 -46.5t-19.5 -46.5t-46.5 -19.5t-46.5 19.5t-19.5 46.5z" />
    <glyph glyph-name="j" unicode="j" horiz-adv-x="240" 
d="M75 474h90v-542q0 -22 -1 -37.5t-9 -43.5t-22 -45.5t-43 -31.5t-70 -14q-34 0 -58 9l10 83q22 -8 37 -8q36 0 51 22.5t15 69.5v538zM54 644q0 27 19.5 46.5t46.5 19.5t46.5 -19.5t19.5 -46.5t-19.5 -46.5t-46.5 -19.5t-46.5 19.5t-19.5 46.5z" />
    <glyph glyph-name="k" unicode="k" horiz-adv-x="519" 
d="M68 0v756h90v-488l204 205h125l-221 -215l240 -258h-128l-220 246v-246h-90z" />
    <glyph glyph-name="l" unicode="l" horiz-adv-x="240" 
d="M75 0v756h90v-756h-90z" />
    <glyph glyph-name="m" unicode="m" horiz-adv-x="852" 
d="M68 0v474h84v-74h2q9 27 52 56.5t100 29.5q102 0 148 -88q22 42 63.5 65t86.5 23q180 0 180 -210v-276h-90v264q0 30 -4 52.5t-14 43t-31.5 31.5t-52.5 11q-121 0 -121 -143v-259h-90v248q0 77 -20 115.5t-80 38.5q-52 0 -87.5 -40t-35.5 -116v-246h-90z" />
    <glyph glyph-name="n" unicode="n" 
d="M68 0v474h90v-73h2q18 38 60 61.5t96 23.5q74 0 123 -45.5t49 -135.5v-305h-90v280q0 63 -30.5 92.5t-77.5 29.5q-59 0 -95.5 -39.5t-36.5 -118.5v-244h-90z" />
    <glyph glyph-name="o" unicode="o" horiz-adv-x="594" 
d="M141 237q0 -73 42.5 -119t113.5 -46t113.5 46t42.5 119t-42.5 119t-113.5 46t-113.5 -46t-42.5 -119zM45 237q0 104 73 176.5t179 72.5t179 -72.5t73 -176.5t-73 -176.5t-179 -72.5t-179 72.5t-73 176.5z" />
    <glyph glyph-name="p" unicode="p" horiz-adv-x="611" 
d="M68 -282v756h90v-68h2q26 37 71 58.5t94 21.5q108 0 174.5 -71t66.5 -178q0 -108 -66.5 -178.5t-174.5 -70.5q-51 0 -96 21.5t-69 58.5h-2v-350h-90zM314 402q-71 0 -113.5 -46t-42.5 -119t42.5 -119t113.5 -46t113.5 46t42.5 119t-42.5 119t-113.5 46z" />
    <glyph glyph-name="q" unicode="q" horiz-adv-x="611" 
d="M543 474v-702h-90v296h-2q-24 -37 -69 -58.5t-96 -21.5q-108 0 -174.5 70.5t-66.5 178.5q0 107 66.5 178t174.5 71q49 0 94 -21.5t71 -58.5h2v68h90zM297 402q-71 0 -113.5 -46t-42.5 -119t42.5 -119t113.5 -46t113.5 46t42.5 119t-42.5 119t-113.5 46z" />
    <glyph glyph-name="r" unicode="r" horiz-adv-x="370" 
d="M68 0v474h90v-73h2q17 37 57 61t85 24q22 0 40 -6l-4 -97q-26 7 -44 7q-136 0 -136 -152v-238h-90z" />
    <glyph glyph-name="s" unicode="s" horiz-adv-x="444" 
d="M390 408l-70 -53q-38 47 -97 47q-33 0 -56 -14t-23 -39q0 -14 7 -25t15 -17.5t24.5 -12.5t25 -8.5t27.5 -6t22 -4.5q67 -16 102.5 -46t35.5 -92q0 -75 -56.5 -112t-135.5 -37q-61 0 -105 19t-78 65l68 56q56 -56 115 -56q38 0 67 15.5t29 44.5q0 11 -3.5 20.5t-12.5 16.5
t-16 11.5t-21.5 9t-20.5 6.5t-22 5.5t-18 3.5q-34 8 -56 16.5t-44.5 23.5t-33.5 38.5t-11 56.5q0 70 53.5 108t126.5 38q115 0 162 -78z" />
    <glyph glyph-name="t" unicode="t" horiz-adv-x="370" 
d="M322 474v-78h-129v-215q0 -27 1.5 -40.5t7 -32.5t20.5 -27.5t39 -8.5q41 0 64 14v-82q-28 -16 -81 -16q-40 0 -68 10.5t-42 23.5t-21.5 38t-8.5 42t-1 47v247h-104v78h104v133h90v-133h129z" />
    <glyph glyph-name="u" unicode="u" 
d="M488 474v-474h-90v73h-2q-18 -38 -60 -61.5t-96 -23.5q-74 0 -123 45.5t-49 135.5v305h90v-280q0 -63 30.5 -92.5t77.5 -29.5q59 0 95.5 39.5t36.5 118.5v244h90z" />
    <glyph glyph-name="v" unicode="v" horiz-adv-x="500" 
d="M204 0l-193 474h104l142 -363l136 363h96l-186 -474h-99z" />
    <glyph glyph-name="w" unicode="w" horiz-adv-x="759" 
d="M167 0l-156 474h101l107 -354h2l113 354h95l120 -354h2l102 354h95l-153 -474h-91l-125 354h-2l-113 -354h-97z" />
    <glyph glyph-name="x" unicode="x" horiz-adv-x="519" 
d="M6 0l192 253l-168 221h116l115 -168l113 168h109l-162 -221l192 -253h-116l-140 199l-140 -199h-111z" />
    <glyph glyph-name="y" unicode="y" horiz-adv-x="500" 
d="M208 -3l-197 477h104l141 -370h2l134 370h97l-225 -576q-28 -72 -61 -105t-101 -33q-48 0 -80 13l11 82q27 -11 54 -11q39 0 57.5 18.5t34.5 59.5z" />
    <glyph glyph-name="z" unicode="z" horiz-adv-x="463" 
d="M35 0v81l269 315h-260v78h370v-80l-271 -316h285v-78h-393z" />
    <glyph glyph-name="braceleft" unicode="{" horiz-adv-x="333" 
d="M304 732v-72h-45q-51 0 -51 -87v-151q2 -61 -27 -93.5t-57 -39.5v-3q11 -1 23.5 -8t27.5 -21.5t24.5 -41.5t8.5 -63v-150q0 -36 12 -61t39 -25h45v-72h-75q-42 0 -73.5 39t-31.5 114v134q-2 54 -25.5 85.5t-58.5 31.5v78q35 0 58.5 31.5t25.5 85.5v158q0 60 32 95.5
t73 35.5h75z" />
    <glyph glyph-name="bar" unicode="|" horiz-adv-x="222" 
d="M72 750h78v-1000h-78v1000z" />
    <glyph glyph-name="braceright" unicode="}" horiz-adv-x="333" 
d="M29 -156v72h45q51 0 51 87v151q-2 61 27 93.5t57 39.5v3q-11 1 -23.5 8t-27.5 21.5t-24.5 41.5t-8.5 63v150q0 36 -12 61t-39 25h-45v72h75q42 0 73.5 -39t31.5 -114v-134q0 -53 24.5 -85t59.5 -32v-78q-35 0 -59.5 -32t-24.5 -85v-158q0 -60 -32 -95.5t-73 -35.5h-75z
" />
    <glyph glyph-name="asciitilde" unicode="~" horiz-adv-x="666" 
d="M530 378l40 -62q-52 -88 -128 -88q-40 0 -116 36t-106 36q-48 0 -84 -72l-40 62q52 88 133 88q43 0 113 -36q72 -37 99 -37q52 0 89 73z" />
    <glyph glyph-name="uni00A0" unicode="&#xa0;" horiz-adv-x="278" 
 />
    <glyph glyph-name="exclamdown" unicode="&#xa1;" horiz-adv-x="278" 
d="M93 -222v504h96v-504h-96zM205 426q0 -27 -19.5 -46.5t-46.5 -19.5t-46.5 19.5t-19.5 46.5t19.5 46.5t46.5 19.5t46.5 -19.5t19.5 -46.5z" />
    <glyph glyph-name="cent" unicode="&#xa2;" 
d="M342 408v-342q63 2 106 52l59 -58q-57 -64 -165 -72v-66h-54v66q-98 10 -157 79.5t-59 169.5q0 101 58 168t158 81v66h54v-66q107 -5 167 -76l-65 -59q-20 24 -47.5 40t-54.5 17zM288 66v342q-60 -9 -93 -57t-33 -112t34 -113t92 -60z" />
    <glyph glyph-name="sterling" unicode="&#xa3;" 
d="M432 400v-72h-162v-244h246v-84h-444v84h102v244h-96v72h96v100q0 93 58 156.5t162 63.5t169 -62l-61 -70q-50 48 -98 48q-58 0 -96 -39t-38 -121v-76h162z" />
    <glyph glyph-name="currency" unicode="&#xa4;" 
d="M21 555l57 56l49 -48q70 49 151 49q83 0 151 -49l49 48l57 -56l-49 -49q49 -67 49 -151t-49 -151l49 -49l-57 -57l-49 49q-65 -49 -151 -49q-82 0 -151 49l-49 -49l-57 57l49 49q-49 67 -49 151t49 151zM99 355q0 -74 52.5 -126.5t126.5 -52.5t126.5 52.5t52.5 126.5
t-52.5 126.5t-126.5 52.5t-126.5 -52.5t-52.5 -126.5z" />
    <glyph glyph-name="yen" unicode="&#xa5;" 
d="M236 0v186h-171v66h171v53l-17 28h-154v66h114l-184 309h100l179 -316l185 316h102l-186 -309h116v-66h-154l-17 -28v-53h171v-66h-171v-186h-84z" />
    <glyph glyph-name="brokenbar" unicode="&#xa6;" horiz-adv-x="222" 
d="M72 675h78v-350h-78v350zM72 175h78v-350h-78v350z" />
    <glyph glyph-name="section" unicode="&#xa7;" 
d="M483 626l-84 -46q-24 60 -101 62q-42 0 -70.5 -20t-28.5 -58q0 -32 30.5 -57t73.5 -43.5t86.5 -39.5t74 -58t30.5 -87q0 -87 -83 -131q65 -44 65 -121q0 -81 -62 -126t-148 -45q-70 0 -124 30t-80 91l87 41q26 -78 124 -78q42 0 71.5 22t29.5 65q0 28 -30.5 51.5
t-74 42.5t-86.5 40.5t-73.5 55t-30.5 76.5q0 103 98 151q-80 45 -80 118q0 76 61 120t142 44q59 0 109.5 -25t73.5 -75zM322 362l-79 38q-74 -29 -74 -79q0 -11 3 -21t6 -17.5t11 -15.5t12.5 -12t16 -11t15.5 -9t18 -8.5t16 -7.5l77 -37q25 15 42.5 39t17.5 49
q0 23 -14.5 42t-28.5 28t-39 22z" />
    <glyph glyph-name="dieresis" unicode="&#xa8;" horiz-adv-x="240" 
d="M18 714q24 0 43 -16.5t19 -40.5q0 -27 -17.5 -45t-44.5 -18t-44.5 18t-17.5 45q0 24 19 40.5t43 16.5zM222 714q24 0 43 -16.5t19 -40.5q0 -27 -17.5 -45t-44.5 -18t-44.5 18t-17.5 45q0 24 19 40.5t43 16.5z" />
    <glyph glyph-name="copyright" unicode="&#xa9;" horiz-adv-x="800" 
d="M28 354q0 154 109 263t263 109t263 -109t109 -263t-109 -263t-263 -109t-263 109t-109 263zM512 286h77q-16 -72 -65.5 -114.5t-120.5 -42.5q-103 0 -162.5 62.5t-59.5 165.5q0 105 57.5 166.5t161.5 61.5q76 0 126.5 -39.5t62.5 -113.5h-77q-21 81 -111 81
q-70 0 -106 -40.5t-36 -113.5q0 -68 39 -113t105 -45q91 0 109 85zM94 354q0 -127 89.5 -216.5t216.5 -89.5t216.5 89.5t89.5 216.5t-89.5 216.5t-216.5 89.5t-216.5 -89.5t-89.5 -216.5z" />
    <glyph glyph-name="ordfeminine" unicode="&#xaa;" horiz-adv-x="337" 
d="M308 425h-66v44l-2 1q-24 -51 -100 -51q-44 0 -75 22.5t-31 63.5q0 28 14 48.5t32.5 30.5t48.5 16t51 7t50 1h12v10q0 20 -18 34t-50 14q-53 0 -89 -33l-35 45q48 42 123 42q79 0 107 -26.5t28 -72.5v-196zM242 560h-2q-30 0 -47.5 -1t-42.5 -5t-37.5 -15.5t-12.5 -29.5
q0 -36 60 -36q41 0 61.5 18.5t20.5 49.5v19z" />
    <glyph glyph-name="guillemotleft" unicode="&#xab;" horiz-adv-x="500" 
d="M193 27l-146 216l145 216l62 -41l-117 -175l118 -175zM391 27l-146 216l145 216l62 -41l-117 -175l118 -175z" />
    <glyph glyph-name="logicalnot" unicode="&#xac;" horiz-adv-x="666" 
d="M600 420v-279h-78v201h-456v78h534z" />
    <glyph glyph-name="uni00AD" unicode="&#xad;" horiz-adv-x="316" 
d="M281 284v-84h-246v84h246z" />
    <glyph glyph-name="registered" unicode="&#xae;" horiz-adv-x="800" 
d="M257 144v425h164q150 0 150 -128q0 -53 -28 -82t-74 -35l111 -180h-82l-106 174h-57v-174h-78zM335 503v-119h57q31 0 49 2.5t35 16.5t17 41t-17 41t-35.5 16.5t-48.5 1.5h-57zM28 354q0 154 109 263t263 109t263 -109t109 -263t-109 -263t-263 -109t-263 109t-109 263z
M94 354q0 -127 89.5 -216.5t216.5 -89.5t216.5 89.5t89.5 216.5t-89.5 216.5t-216.5 89.5t-216.5 -89.5t-89.5 -216.5z" />
    <glyph glyph-name="macron" unicode="&#xaf;" horiz-adv-x="240" 
d="M264 666v-66h-288v66h288z" />
    <glyph glyph-name="degree" unicode="&#xb0;" horiz-adv-x="400" 
d="M51 571q0 61 43.5 105t105.5 44t105.5 -44t43.5 -105t-43.5 -105t-105.5 -44t-105.5 44t-43.5 105zM117 571q0 -35 24.5 -59t58.5 -24t58.5 24t24.5 59t-24.5 59t-58.5 24t-58.5 -24t-24.5 -59z" />
    <glyph glyph-name="plusminus" unicode="&#xb1;" horiz-adv-x="666" 
d="M66 315v78h228v163h78v-163h228v-78h-228v-150h-78v150h-228zM66 51v78h534v-78h-534z" />
    <glyph glyph-name="twosuperior" unicode="&#xb2;" horiz-adv-x="361" 
d="M26 289v76l179 160q45 41 45 73q0 26 -18.5 41t-46.5 15q-29 0 -47.5 -16t-20.5 -43l-84 6q5 57 46.5 88t105.5 31q66 0 107.5 -31t41.5 -89q0 -63 -71 -124l-141 -121h213v-66h-309z" />
    <glyph glyph-name="threesuperior" unicode="&#xb3;" horiz-adv-x="361" 
d="M140 477v66h18q27 0 44.5 3t31.5 16.5t14 37.5t-18 39t-47 15q-52 0 -69 -45l-83 20q14 45 54 68t94 23q63 0 105 -29.5t42 -82.5q0 -35 -21 -61.5t-57 -34.5v-2q42 -5 65.5 -33.5t23.5 -69.5q0 -58 -45 -91t-110 -33q-130 0 -158 99l83 20q16 -53 75 -53q32 0 54.5 18
t22.5 46q0 66 -102 64h-17z" />
    <glyph glyph-name="acute" unicode="&#xb4;" horiz-adv-x="240" 
d="M54 564l104 144h128l-149 -144h-83z" />
    <glyph glyph-name="mu" unicode="&#xb5;" 
d="M68 -228v702h90v-280q0 -63 30.5 -92.5t77.5 -29.5q59 0 95.5 39.5t36.5 118.5v244h90v-474h-90v73h-2q-18 -38 -60 -61.5t-96 -23.5q-46 0 -82 18v-234h-90z" />
    <glyph glyph-name="paragraph" unicode="&#xb6;" horiz-adv-x="600" 
d="M260 -126v444q-91 0 -150 53t-59 132q0 97 61 151t167 54h249v-834h-78v768h-112v-768h-78z" />
    <glyph glyph-name="periodcentered" unicode="&#xb7;" horiz-adv-x="278" 
d="M73 303q0 27 19.5 46.5t46.5 19.5t46.5 -19.5t19.5 -46.5t-19.5 -46.5t-46.5 -19.5t-46.5 19.5t-19.5 46.5z" />
    <glyph glyph-name="cedilla" unicode="&#xb8;" horiz-adv-x="240" 
d="M5 -205l19 40q38 -15 78 -15q23 0 42 9.5t19 32.5q0 34 -33 39.5t-61 -6.5l-21 18l61 87h49l-44 -61h29q37 1 64.5 -18t27.5 -54q0 -49 -37.5 -72t-87.5 -23q-58 0 -105 23z" />
    <glyph glyph-name="onesuperior" unicode="&#xb9;" horiz-adv-x="361" 
d="M154 289v359l-85 -72l-42 46l128 98h71v-431h-72z" />
    <glyph glyph-name="ordmasculine" unicode="&#xba;" horiz-adv-x="386" 
d="M193 720q75 0 119.5 -41.5t44.5 -109.5t-44.5 -109t-119.5 -41t-119.5 41t-44.5 109t44.5 109.5t119.5 41.5zM193 660q-44 0 -68 -24.5t-24 -66.5t24 -66t68 -24t68 24t24 66t-24 66.5t-68 24.5z" />
    <glyph glyph-name="guillemotright" unicode="&#xbb;" horiz-adv-x="500" 
d="M307 459l146 -216l-145 -216l-62 41l117 175l-118 175zM109 459l146 -216l-145 -216l-62 41l117 175l-118 175z" />
    <glyph glyph-name="onequarter" unicode="&#xbc;" horiz-adv-x="834" 
d="M673 0v94h-196v58l183 279h79v-271h62v-66h-62v-94h-66zM667 160v187h-2l-116 -187h118zM152 0l439 740l60 -32l-439 -740zM160 289v359l-85 -72l-42 46l128 98h71v-431h-72z" />
    <glyph glyph-name="onehalf" unicode="&#xbd;" horiz-adv-x="834" 
d="M158 289v359l-85 -72l-42 46l128 98h71v-431h-72zM494 0v76l179 160q45 40 45 73q0 26 -18.5 41t-46.5 15q-29 0 -47.5 -16t-20.5 -43l-84 6q5 57 46.5 88t105.5 31q66 0 107.5 -31t41.5 -89q0 -63 -71 -124l-141 -121h213v-66h-309zM140 0l439 740l60 -32l-439 -740z
" />
    <glyph glyph-name="threequarters" unicode="&#xbe;" horiz-adv-x="834" 
d="M693 0v94h-196v58l183 279h79v-271h62v-66h-62v-94h-66zM693 160v187h-2l-116 -187h118zM192 0l439 740l60 -32l-439 -740zM139 477v66h18q27 0 44.5 3t31.5 16.5t14 37.5t-18 39t-47 15q-52 0 -69 -45l-83 20q14 45 54 68t94 23q63 0 105 -29.5t42 -82.5
q0 -35 -21 -61.5t-57 -34.5v-2q42 -5 65.5 -33.5t23.5 -69.5q0 -58 -45 -91t-110 -33q-130 0 -158 99l83 20q16 -53 75 -53q32 0 54.5 18t22.5 46q0 66 -102 64h-17z" />
    <glyph glyph-name="questiondown" unicode="&#xbf;" horiz-adv-x="500" 
d="M194 288h96v-61q0 -36 -8.5 -59t-19 -35.5t-43.5 -43.5q-3 -3 -20.5 -19.5t-22.5 -22t-17.5 -20.5t-17 -24.5t-9 -24t-4.5 -28.5q0 -45 30.5 -75.5t75.5 -30.5q48 0 79 31t37 81l102 -10q-13 -86 -72.5 -136t-147.5 -50q-87 0 -143.5 49.5t-56.5 135.5q0 78 42 120l70 71
q32 33 41 50.5t9 57.5v44zM309 426q0 -27 -19.5 -46.5t-46.5 -19.5t-46.5 19.5t-19.5 46.5t19.5 46.5t46.5 19.5t46.5 -19.5t19.5 -46.5z" />
    <glyph glyph-name="Agrave" unicode="&#xc0;" horiz-adv-x="704" 
d="M1 0l312 708h87l303 -708h-112l-71 175h-337l-70 -175h-112zM217 259h268l-132 325h-2zM314 892l104 -144h-83l-149 144h128z" />
    <glyph glyph-name="Aacute" unicode="&#xc1;" horiz-adv-x="704" 
d="M1 0l312 708h87l303 -708h-112l-71 175h-337l-70 -175h-112zM217 259h268l-132 325h-2zM286 748l104 144h128l-149 -144h-83z" />
    <glyph glyph-name="Acircumflex" unicode="&#xc2;" horiz-adv-x="704" 
d="M1 0l312 708h87l303 -708h-112l-71 175h-337l-70 -175h-112zM217 259h268l-132 325h-2zM517 748h-91l-74 96l-74 -96h-91l112 144h106z" />
    <glyph glyph-name="Atilde" unicode="&#xc3;" horiz-adv-x="704" 
d="M1 0l312 708h87l303 -708h-112l-71 175h-337l-70 -175h-112zM217 259h268l-132 325h-2zM232 760h-48q7 43 33.5 73.5t67.5 30.5q28 0 84 -23q42 -17 54 -17q36 0 49 44h48q-7 -44 -30 -74t-64 -30q-28 0 -81 21q-47 19 -66 19q-33 0 -47 -44z" />
    <glyph glyph-name="Adieresis" unicode="&#xc4;" horiz-adv-x="704" 
d="M1 0l312 708h87l303 -708h-112l-71 175h-337l-70 -175h-112zM217 259h268l-132 325h-2zM250 898q24 0 43 -16.5t19 -40.5q0 -27 -17.5 -45t-44.5 -18t-44.5 18t-17.5 45q0 24 19 40.5t43 16.5zM454 898q24 0 43 -16.5t19 -40.5q0 -27 -17.5 -45t-44.5 -18t-44.5 18
t-17.5 45q0 24 19 40.5t43 16.5z" />
    <glyph glyph-name="Aring" unicode="&#xc5;" horiz-adv-x="704" 
d="M1 0l312 708h87l303 -708h-112l-71 175h-337l-70 -175h-112zM217 259h268l-132 325h-2zM250 825q0 41 30.5 70t71.5 29q42 0 72.5 -28.5t29.5 -69.5q1 -42 -29.5 -70.5t-72.5 -28.5q-41 0 -71.5 28.5t-30.5 69.5zM412 825q0 24 -18 40.5t-42 16.5t-42 -16.5t-18 -40.5
q0 -23 18 -39.5t42 -16.5t42 16.5t18 39.5z" />
    <glyph glyph-name="AE" unicode="&#xc6;" horiz-adv-x="963" 
d="M-8 0l458 708h456v-90h-295v-211h277v-90h-277v-227h307v-90h-403v172h-304l-101 -172h-118zM263 262h252v356h-19z" />
    <glyph glyph-name="Ccedilla" unicode="&#xc7;" horiz-adv-x="704" 
d="M664 616l-80 -61q-30 38 -75.5 59.5t-95.5 21.5q-117 0 -190.5 -82.5t-73.5 -205.5q0 -116 72 -196t192 -80q117 0 185 95l81 -61q-11 -15 -29 -32t-50.5 -40t-82.5 -37.5t-106 -14.5q-8 0 -13 1l-32 -44h29q37 1 64.5 -18t27.5 -54q0 -49 -37.5 -72t-87.5 -23
q-58 0 -105 23l19 40q38 -15 78 -15q23 0 42 9.5t19 32.5q0 34 -33 39.5t-61 -6.5l-21 18l52 74q-137 21 -221 127t-84 234q0 166 103 272t266 106q73 0 140 -28t108 -82z" />
    <glyph glyph-name="Egrave" unicode="&#xc8;" horiz-adv-x="611" 
d="M91 0v708h457v-90h-361v-211h336v-90h-336v-227h379v-90h-475zM268 892l104 -144h-83l-149 144h128z" />
    <glyph glyph-name="Eacute" unicode="&#xc9;" horiz-adv-x="611" 
d="M91 0v708h457v-90h-361v-211h336v-90h-336v-227h379v-90h-475zM240 748l104 144h128l-149 -144h-83z" />
    <glyph glyph-name="Ecircumflex" unicode="&#xca;" horiz-adv-x="611" 
d="M91 0v708h457v-90h-361v-211h336v-90h-336v-227h379v-90h-475zM471 748h-91l-74 96l-74 -96h-91l112 144h106z" />
    <glyph glyph-name="Edieresis" unicode="&#xcb;" horiz-adv-x="611" 
d="M91 0v708h457v-90h-361v-211h336v-90h-336v-227h379v-90h-475zM204 898q24 0 43 -16.5t19 -40.5q0 -27 -17.5 -45t-44.5 -18t-44.5 18t-17.5 45q0 24 19 40.5t43 16.5zM408 898q24 0 43 -16.5t19 -40.5q0 -27 -17.5 -45t-44.5 -18t-44.5 18t-17.5 45q0 24 19 40.5
t43 16.5z" />
    <glyph glyph-name="Igrave" unicode="&#xcc;" horiz-adv-x="278" 
d="M91 0v708h96v-708h-96zM101 892l104 -144h-83l-149 144h128z" />
    <glyph glyph-name="Iacute" unicode="&#xcd;" horiz-adv-x="278" 
d="M91 0v708h96v-708h-96zM73 748l104 144h128l-149 -144h-83z" />
    <glyph glyph-name="Icircumflex" unicode="&#xce;" horiz-adv-x="278" 
d="M91 0v708h96v-708h-96zM304 748h-91l-74 96l-74 -96h-91l112 144h106z" />
    <glyph glyph-name="Idieresis" unicode="&#xcf;" horiz-adv-x="278" 
d="M91 0v708h96v-708h-96zM37 898q24 0 43 -16.5t19 -40.5q0 -27 -17.5 -45t-44.5 -18t-44.5 18t-17.5 45q0 24 19 40.5t43 16.5zM241 898q24 0 43 -16.5t19 -40.5q0 -27 -17.5 -45t-44.5 -18t-44.5 18t-17.5 45q0 24 19 40.5t43 16.5z" />
    <glyph glyph-name="Eth" unicode="&#xd0;" horiz-adv-x="741" 
d="M75 0v336h-72v66h72v306h247q86 0 153.5 -24.5t107.5 -62t66 -86.5t35.5 -93.5t9.5 -87.5q0 -69 -25.5 -132t-73 -113t-122.5 -79.5t-167 -29.5h-231zM171 336v-246h121q128 0 214 69t86 195q0 31 -6.5 62.5t-25 69t-48 66t-80.5 47.5t-117 19h-144v-216h234v-66h-234z
" />
    <glyph glyph-name="Ntilde" unicode="&#xd1;" horiz-adv-x="796" 
d="M91 0v708h126l390 -582h2v582h96v-708h-122l-394 582h-2v-582h-96zM278 760h-48q7 43 33.5 73.5t67.5 30.5q28 0 84 -23q5 -2 13.5 -6t13.5 -6t12.5 -3.5t14.5 -1.5q36 0 49 44h48q-7 -44 -30 -74t-64 -30q-28 0 -81 21q-47 19 -66 19q-33 0 -47 -44z" />
    <glyph glyph-name="Ograve" unicode="&#xd2;" horiz-adv-x="832" 
d="M416 -18q-161 0 -265 106.5t-104 265.5t104 265.5t265 106.5t265 -106.5t104 -265.5t-104 -265.5t-265 -106.5zM416 72q119 0 193 81.5t74 200.5t-74 200.5t-193 81.5t-193 -81.5t-74 -200.5t74 -200.5t193 -81.5zM378 892l104 -144h-83l-149 144h128z" />
    <glyph glyph-name="Oacute" unicode="&#xd3;" horiz-adv-x="832" 
d="M416 -18q-161 0 -265 106.5t-104 265.5t104 265.5t265 106.5t265 -106.5t104 -265.5t-104 -265.5t-265 -106.5zM416 72q119 0 193 81.5t74 200.5t-74 200.5t-193 81.5t-193 -81.5t-74 -200.5t74 -200.5t193 -81.5zM350 748l104 144h128l-149 -144h-83z" />
    <glyph glyph-name="Ocircumflex" unicode="&#xd4;" horiz-adv-x="832" 
d="M416 -18q-161 0 -265 106.5t-104 265.5t104 265.5t265 106.5t265 -106.5t104 -265.5t-104 -265.5t-265 -106.5zM416 72q119 0 193 81.5t74 200.5t-74 200.5t-193 81.5t-193 -81.5t-74 -200.5t74 -200.5t193 -81.5zM581 748h-91l-74 96l-74 -96h-91l112 144h106z" />
    <glyph glyph-name="Otilde" unicode="&#xd5;" horiz-adv-x="832" 
d="M416 -18q-161 0 -265 106.5t-104 265.5t104 265.5t265 106.5t265 -106.5t104 -265.5t-104 -265.5t-265 -106.5zM416 72q119 0 193 81.5t74 200.5t-74 200.5t-193 81.5t-193 -81.5t-74 -200.5t74 -200.5t193 -81.5zM296 760h-48q7 43 33.5 73.5t67.5 30.5q28 0 84 -23
q5 -2 13.5 -6t13.5 -6t12.5 -3.5t14.5 -1.5q36 0 49 44h48q-7 -44 -30 -74t-64 -30q-28 0 -81 21q-48 19 -66 19q-33 0 -47 -44z" />
    <glyph glyph-name="Odieresis" unicode="&#xd6;" horiz-adv-x="832" 
d="M416 -18q-161 0 -265 106.5t-104 265.5t104 265.5t265 106.5t265 -106.5t104 -265.5t-104 -265.5t-265 -106.5zM416 72q119 0 193 81.5t74 200.5t-74 200.5t-193 81.5t-193 -81.5t-74 -200.5t74 -200.5t193 -81.5zM314 898q24 0 43 -16.5t19 -40.5q0 -27 -17.5 -45
t-44.5 -18t-44.5 18t-17.5 45q0 24 19 40.5t43 16.5zM518 898q24 0 43 -16.5t19 -40.5q0 -27 -17.5 -45t-44.5 -18t-44.5 18t-17.5 45q0 24 19 40.5t43 16.5z" />
    <glyph glyph-name="multiply" unicode="&#xd7;" horiz-adv-x="666" 
d="M68 92l210 211l-212 212l55 55l212 -212l213 212l54 -55l-212 -212l212 -212l-56 -55l-211 212l-211 -212z" />
    <glyph glyph-name="Oslash" unicode="&#xd8;" horiz-adv-x="832" 
d="M621 540l-375 -409q72 -59 170 -59q119 0 193 81.5t74 200.5q0 108 -62 186zM207 173l374 407q-70 56 -165 56q-119 0 -193 -81.5t-74 -200.5q0 -104 58 -181zM98 -30l-43 38l85 93q-93 104 -93 253q0 159 104 265.5t265 106.5q132 0 230 -76l83 90l42 -38l-83 -90
q97 -103 97 -258q0 -159 -104 -265.5t-265 -106.5q-136 0 -234 79z" />
    <glyph glyph-name="Ugrave" unicode="&#xd9;" horiz-adv-x="704" 
d="M78 708h96v-434q0 -79 43.5 -140.5t134.5 -61.5t134.5 61.5t43.5 140.5v434h96v-449q0 -122 -78 -199.5t-196 -77.5t-196 77.5t-78 199.5v449zM314 892l104 -144h-83l-149 144h128z" />
    <glyph glyph-name="Uacute" unicode="&#xda;" horiz-adv-x="704" 
d="M78 708h96v-434q0 -79 43.5 -140.5t134.5 -61.5t134.5 61.5t43.5 140.5v434h96v-449q0 -122 -78 -199.5t-196 -77.5t-196 77.5t-78 199.5v449zM286 748l104 144h128l-149 -144h-83z" />
    <glyph glyph-name="Ucircumflex" unicode="&#xdb;" horiz-adv-x="704" 
d="M78 708h96v-434q0 -79 43.5 -140.5t134.5 -61.5t134.5 61.5t43.5 140.5v434h96v-449q0 -122 -78 -199.5t-196 -77.5t-196 77.5t-78 199.5v449zM517 748h-91l-74 96l-74 -96h-91l112 144h106z" />
    <glyph glyph-name="Udieresis" unicode="&#xdc;" horiz-adv-x="704" 
d="M78 708h96v-434q0 -79 43.5 -140.5t134.5 -61.5t134.5 61.5t43.5 140.5v434h96v-449q0 -122 -78 -199.5t-196 -77.5t-196 77.5t-78 199.5v449zM250 898q24 0 43 -16.5t19 -40.5q0 -27 -17.5 -45t-44.5 -18t-44.5 18t-17.5 45q0 24 19 40.5t43 16.5zM454 898
q24 0 43 -16.5t19 -40.5q0 -27 -17.5 -45t-44.5 -18t-44.5 18t-17.5 45q0 24 19 40.5t43 16.5z" />
    <glyph glyph-name="Yacute" unicode="&#xdd;" horiz-adv-x="612" 
d="M258 0v302l-268 406h123l193 -311l199 311h117l-268 -406v-302h-96zM240 748l104 144h128l-149 -144h-83z" />
    <glyph glyph-name="Thorn" unicode="&#xde;" horiz-adv-x="593" 
d="M91 0v708h96v-145h153q65 0 111.5 -18t70.5 -48.5t34.5 -62.5t10.5 -69t-10.5 -69t-34.5 -62.5t-70.5 -48.5t-111.5 -18h-153v-167h-96zM187 479v-228h126q152 0 152 114t-152 114h-126z" />
    <glyph glyph-name="germandbls" unicode="&#xdf;" horiz-adv-x="611" 
d="M68 0v509q0 58 9.5 101t32.5 80.5t69 57.5t114 20q87 0 145 -48t58 -133q0 -60 -29.5 -100t-81.5 -55v-2q68 -10 119 -63.5t51 -146.5q0 -106 -67.5 -169t-174.5 -63q-37 0 -71 9v81q26 -6 53 -6q75 0 119.5 41.5t44.5 114.5q0 76 -48.5 115.5t-125.5 39.5h-14v84h16
q51 0 82 29.5t31 79.5q0 56 -33 82t-79 26q-130 0 -130 -164v-520h-90z" />
    <glyph glyph-name="agrave" unicode="&#xe0;" horiz-adv-x="519" 
d="M124 360l-54 56q74 70 188 70q99 0 148.5 -45.5t49.5 -112.5v-242q0 -53 4 -86h-80q-3 36 -3 72h-2q-55 -84 -166 -84q-69 0 -116.5 38t-47.5 104q0 86 71.5 125t189.5 39h66v20q0 40 -29.5 70t-83.5 30q-32 0 -60.5 -10t-38.5 -17t-36 -27zM372 228h-48q-189 0 -189 -91
q0 -77 102 -77q69 0 102 41t33 97v30zM222 708l104 -144h-83l-149 144h128z" />
    <glyph glyph-name="aacute" unicode="&#xe1;" horiz-adv-x="519" 
d="M124 360l-54 56q74 70 188 70q99 0 148.5 -45.5t49.5 -112.5v-242q0 -53 4 -86h-80q-3 36 -3 72h-2q-55 -84 -166 -84q-69 0 -116.5 38t-47.5 104q0 86 71.5 125t189.5 39h66v20q0 40 -29.5 70t-83.5 30q-32 0 -60.5 -10t-38.5 -17t-36 -27zM372 228h-48q-189 0 -189 -91
q0 -77 102 -77q69 0 102 41t33 97v30zM194 564l104 144h128l-149 -144h-83z" />
    <glyph glyph-name="acircumflex" unicode="&#xe2;" horiz-adv-x="519" 
d="M124 360l-54 56q74 70 188 70q99 0 148.5 -45.5t49.5 -112.5v-242q0 -53 4 -86h-80q-3 36 -3 72h-2q-55 -84 -166 -84q-69 0 -116.5 38t-47.5 104q0 86 71.5 125t189.5 39h66v20q0 40 -29.5 70t-83.5 30q-32 0 -60.5 -10t-38.5 -17t-36 -27zM372 228h-48q-189 0 -189 -91
q0 -77 102 -77q69 0 102 41t33 97v30zM425 564h-91l-74 96l-74 -96h-91l112 144h106z" />
    <glyph glyph-name="atilde" unicode="&#xe3;" horiz-adv-x="519" 
d="M124 360l-54 56q74 70 188 70q99 0 148.5 -45.5t49.5 -112.5v-242q0 -53 4 -86h-80q-3 36 -3 72h-2q-55 -84 -166 -84q-69 0 -116.5 38t-47.5 104q0 86 71.5 125t189.5 39h66v20q0 40 -29.5 70t-83.5 30q-32 0 -60.5 -10t-38.5 -17t-36 -27zM372 228h-48q-189 0 -189 -91
q0 -77 102 -77q69 0 102 41t33 97v30zM140 576h-48q7 43 33.5 73.5t67.5 30.5q28 0 84 -23q42 -17 54 -17q36 0 49 44h48q-7 -44 -30 -74t-64 -30q-28 0 -81 21q-47 19 -66 19q-33 0 -47 -44z" />
    <glyph glyph-name="adieresis" unicode="&#xe4;" horiz-adv-x="519" 
d="M124 360l-54 56q74 70 188 70q99 0 148.5 -45.5t49.5 -112.5v-242q0 -53 4 -86h-80q-3 36 -3 72h-2q-55 -84 -166 -84q-69 0 -116.5 38t-47.5 104q0 86 71.5 125t189.5 39h66v20q0 40 -29.5 70t-83.5 30q-32 0 -60.5 -10t-38.5 -17t-36 -27zM372 228h-48q-189 0 -189 -91
q0 -77 102 -77q69 0 102 41t33 97v30zM158 714q24 0 43 -16.5t19 -40.5q0 -27 -17.5 -45t-44.5 -18t-44.5 18t-17.5 45q0 24 19 40.5t43 16.5zM362 714q24 0 43 -16.5t19 -40.5q0 -27 -17.5 -45t-44.5 -18t-44.5 18t-17.5 45q0 24 19 40.5t43 16.5z" />
    <glyph glyph-name="aring" unicode="&#xe5;" horiz-adv-x="519" 
d="M124 360l-54 56q74 70 188 70q99 0 148.5 -45.5t49.5 -112.5v-242q0 -53 4 -86h-80q-3 36 -3 72h-2q-55 -84 -166 -84q-69 0 -116.5 38t-47.5 104q0 86 71.5 125t189.5 39h66v20q0 40 -29.5 70t-83.5 30q-32 0 -60.5 -10t-38.5 -17t-36 -27zM372 228h-48q-189 0 -189 -91
q0 -77 102 -77q69 0 102 41t33 97v30zM158 651q0 41 30.5 70t71.5 29q42 0 72.5 -28.5t29.5 -69.5q1 -42 -29.5 -70.5t-72.5 -28.5q-41 0 -71.5 28.5t-30.5 69.5zM320 651q0 24 -18 40.5t-42 16.5t-42 -16.5t-18 -40.5q0 -23 18 -39.5t42 -16.5t42 16.5t18 39.5z" />
    <glyph glyph-name="ae" unicode="&#xe6;" horiz-adv-x="852" 
d="M813 246v-42h-353q0 -60 38.5 -102t104.5 -42q81 0 123 75l73 -55q-43 -50 -89.5 -74t-108.5 -24q-128 0 -185 97q-71 -97 -194 -97q-90 0 -136.5 45.5t-46.5 107.5q0 53 31 86t72 44t94 11h140v15q0 53 -31.5 88t-87.5 35q-67 0 -134 -54l-56 57q77 69 189 69
q120 0 170 -76q67 76 166 76q52 0 92.5 -17.5t64 -43.5t38.5 -60t20.5 -63t5.5 -56zM376 204h-142q-99 0 -99 -69q0 -34 29 -57.5t70 -23.5q58 0 100 37.5t42 98.5v14zM460 276h257q-4 132 -126 132q-61 0 -96 -37.5t-35 -94.5z" />
    <glyph glyph-name="ccedilla" unicode="&#xe7;" horiz-adv-x="482" 
d="M475 410l-68 -62q-50 53 -118 53q-70 0 -109 -48.5t-39 -119.5q0 -68 42.5 -114.5t110.5 -46.5q70 0 115 53l64 -64q-63 -70 -172 -72l-36 -50h29q37 1 64.5 -18t27.5 -54q0 -49 -37.5 -72t-87.5 -23q-58 0 -105 23l19 40q37 -15 78 -15q23 0 42 9.5t19 32.5
q0 34 -33 39.5t-61 -6.5l-21 18l55 79q-94 11 -151.5 77.5t-57.5 165.5q0 110 69 180t179 70q113 0 182 -75z" />
    <glyph glyph-name="egrave" unicode="&#xe8;" 
d="M516 204h-380q0 -60 47.5 -99t112.5 -39q72 0 130 71l68 -52q-75 -97 -210 -97q-110 0 -177 70.5t-67 178.5q0 107 69.5 178t175.5 71q116 0 173.5 -73.5t57.5 -176.5v-32zM136 276h284q-2 62 -36.5 100t-100.5 38q-63 0 -105 -43.5t-42 -94.5zM240 708l104 -144h-83
l-149 144h128z" />
    <glyph glyph-name="eacute" unicode="&#xe9;" 
d="M516 204h-380q0 -60 47.5 -99t112.5 -39q72 0 130 71l68 -52q-75 -97 -210 -97q-110 0 -177 70.5t-67 178.5q0 107 69.5 178t175.5 71q116 0 173.5 -73.5t57.5 -176.5v-32zM136 276h284q-2 62 -36.5 100t-100.5 38q-63 0 -105 -43.5t-42 -94.5zM212 564l104 144h128
l-149 -144h-83z" />
    <glyph glyph-name="ecircumflex" unicode="&#xea;" 
d="M516 204h-380q0 -60 47.5 -99t112.5 -39q72 0 130 71l68 -52q-75 -97 -210 -97q-110 0 -177 70.5t-67 178.5q0 107 69.5 178t175.5 71q116 0 173.5 -73.5t57.5 -176.5v-32zM136 276h284q-2 62 -36.5 100t-100.5 38q-63 0 -105 -43.5t-42 -94.5zM443 564h-91l-74 96
l-74 -96h-91l112 144h106z" />
    <glyph glyph-name="edieresis" unicode="&#xeb;" 
d="M516 204h-380q0 -60 47.5 -99t112.5 -39q72 0 130 71l68 -52q-75 -97 -210 -97q-110 0 -177 70.5t-67 178.5q0 107 69.5 178t175.5 71q116 0 173.5 -73.5t57.5 -176.5v-32zM136 276h284q-2 62 -36.5 100t-100.5 38q-63 0 -105 -43.5t-42 -94.5zM176 714q24 0 43 -16.5
t19 -40.5q0 -27 -17.5 -45t-44.5 -18t-44.5 18t-17.5 45q0 24 19 40.5t43 16.5zM380 714q24 0 43 -16.5t19 -40.5q0 -27 -17.5 -45t-44.5 -18t-44.5 18t-17.5 45q0 24 19 40.5t43 16.5z" />
    <glyph glyph-name="igrave" unicode="&#xec;" horiz-adv-x="240" 
d="M75 0v474h90v-474h-90zM82 708l104 -144h-83l-149 144h128z" />
    <glyph glyph-name="iacute" unicode="&#xed;" horiz-adv-x="240" 
d="M75 0v474h90v-474h-90zM54 564l104 144h128l-149 -144h-83z" />
    <glyph glyph-name="icircumflex" unicode="&#xee;" horiz-adv-x="240" 
d="M75 0v474h90v-474h-90zM285 564h-91l-74 96l-74 -96h-91l112 144h106z" />
    <glyph glyph-name="idieresis" unicode="&#xef;" horiz-adv-x="240" 
d="M75 0v474h90v-474h-90zM18 714q24 0 43 -16.5t19 -40.5q0 -27 -17.5 -45t-44.5 -18t-44.5 18t-17.5 45q0 24 19 40.5t43 16.5zM222 714q24 0 43 -16.5t19 -40.5q0 -27 -17.5 -45t-44.5 -18t-44.5 18t-17.5 45q0 24 19 40.5t43 16.5z" />
    <glyph glyph-name="eth" unicode="&#xf0;" horiz-adv-x="594" 
d="M423 756l52 -44l-112 -55q88 -94 137 -187t49 -201q0 -128 -67 -204.5t-185 -76.5q-106 0 -179 72.5t-73 176.5t73 176.5t179 72.5q82 0 125 -50l2 2q-48 86 -144 180l-107 -52l-47 46l106 53l-85 71l79 46l89 -78zM141 237q0 -73 42.5 -119t113.5 -46t113.5 46t42.5 119
t-42.5 119t-113.5 46t-113.5 -46t-42.5 -119z" />
    <glyph glyph-name="ntilde" unicode="&#xf1;" 
d="M68 0v474h90v-73h2q18 38 60 61.5t96 23.5q74 0 123 -45.5t49 -135.5v-305h-90v280q0 63 -30.5 92.5t-77.5 29.5q-59 0 -95.5 -39.5t-36.5 -118.5v-244h-90zM158 576h-48q7 43 33.5 73.5t67.5 30.5q28 0 84 -23q5 -2 13.5 -6t13.5 -6t12.5 -3.5t14.5 -1.5q36 0 49 44h48
q-7 -44 -30 -74t-64 -30q-29 0 -81 21q-47 19 -66 19q-33 0 -47 -44z" />
    <glyph glyph-name="ograve" unicode="&#xf2;" horiz-adv-x="594" 
d="M141 237q0 -73 42.5 -119t113.5 -46t113.5 46t42.5 119t-42.5 119t-113.5 46t-113.5 -46t-42.5 -119zM45 237q0 104 73 176.5t179 72.5t179 -72.5t73 -176.5t-73 -176.5t-179 -72.5t-179 72.5t-73 176.5zM259 708l104 -144h-83l-149 144h128z" />
    <glyph glyph-name="oacute" unicode="&#xf3;" horiz-adv-x="594" 
d="M141 237q0 -73 42.5 -119t113.5 -46t113.5 46t42.5 119t-42.5 119t-113.5 46t-113.5 -46t-42.5 -119zM45 237q0 104 73 176.5t179 72.5t179 -72.5t73 -176.5t-73 -176.5t-179 -72.5t-179 72.5t-73 176.5zM231 564l104 144h128l-149 -144h-83z" />
    <glyph glyph-name="ocircumflex" unicode="&#xf4;" horiz-adv-x="594" 
d="M141 237q0 -73 42.5 -119t113.5 -46t113.5 46t42.5 119t-42.5 119t-113.5 46t-113.5 -46t-42.5 -119zM45 237q0 104 73 176.5t179 72.5t179 -72.5t73 -176.5t-73 -176.5t-179 -72.5t-179 72.5t-73 176.5zM462 564h-91l-74 96l-74 -96h-91l112 144h106z" />
    <glyph glyph-name="otilde" unicode="&#xf5;" horiz-adv-x="594" 
d="M141 237q0 -73 42.5 -119t113.5 -46t113.5 46t42.5 119t-42.5 119t-113.5 46t-113.5 -46t-42.5 -119zM45 237q0 104 73 176.5t179 72.5t179 -72.5t73 -176.5t-73 -176.5t-179 -72.5t-179 72.5t-73 176.5zM177 576h-48q7 43 33.5 73.5t67.5 30.5q28 0 84 -23
q42 -17 54 -17q36 0 49 44h48q-7 -44 -30 -74t-64 -30q-29 0 -81 21q-48 19 -66 19q-33 0 -47 -44z" />
    <glyph glyph-name="odieresis" unicode="&#xf6;" horiz-adv-x="594" 
d="M141 237q0 -73 42.5 -119t113.5 -46t113.5 46t42.5 119t-42.5 119t-113.5 46t-113.5 -46t-42.5 -119zM45 237q0 104 73 176.5t179 72.5t179 -72.5t73 -176.5t-73 -176.5t-179 -72.5t-179 72.5t-73 176.5zM195 714q24 0 43 -16.5t19 -40.5q0 -27 -17.5 -45t-44.5 -18
t-44.5 18t-17.5 45q0 24 19 40.5t43 16.5zM399 714q24 0 43 -16.5t19 -40.5q0 -27 -17.5 -45t-44.5 -18t-44.5 18t-17.5 45q0 24 19 40.5t43 16.5z" />
    <glyph glyph-name="divide" unicode="&#xf7;" horiz-adv-x="666" 
d="M66 341h534v-78h-534v78zM267 470q0 27 19.5 46.5t46.5 19.5t46.5 -19.5t19.5 -46.5t-19.5 -46.5t-46.5 -19.5t-46.5 19.5t-19.5 46.5zM267 134q0 27 19.5 46.5t46.5 19.5t46.5 -19.5t19.5 -46.5t-19.5 -46.5t-46.5 -19.5t-46.5 19.5t-19.5 46.5z" />
    <glyph glyph-name="oslash" unicode="&#xf8;" horiz-adv-x="594" 
d="M171 135l228 232q-41 35 -102 35q-71 0 -113.5 -46t-42.5 -119q0 -61 30 -102zM78 -32l-37 36l67 68q-63 68 -63 165q0 104 73 176.5t179 72.5q94 0 162 -58l75 75l36 -36l-75 -76q54 -67 54 -154q0 -104 -73 -176.5t-179 -72.5q-84 0 -150 49zM431 326l-223 -227
q36 -27 89 -27q71 0 113.5 46t42.5 119q0 52 -22 89z" />
    <glyph glyph-name="ugrave" unicode="&#xf9;" 
d="M488 474v-474h-90v73h-2q-18 -38 -60 -61.5t-96 -23.5q-74 0 -123 45.5t-49 135.5v305h90v-280q0 -63 30.5 -92.5t77.5 -29.5q59 0 95.5 39.5t36.5 118.5v244h90zM240 708l104 -144h-83l-149 144h128z" />
    <glyph glyph-name="uacute" unicode="&#xfa;" 
d="M488 474v-474h-90v73h-2q-18 -38 -60 -61.5t-96 -23.5q-74 0 -123 45.5t-49 135.5v305h90v-280q0 -63 30.5 -92.5t77.5 -29.5q59 0 95.5 39.5t36.5 118.5v244h90zM212 564l104 144h128l-149 -144h-83z" />
    <glyph glyph-name="ucircumflex" unicode="&#xfb;" 
d="M488 474v-474h-90v73h-2q-18 -38 -60 -61.5t-96 -23.5q-74 0 -123 45.5t-49 135.5v305h90v-280q0 -63 30.5 -92.5t77.5 -29.5q59 0 95.5 39.5t36.5 118.5v244h90zM443 564h-91l-74 96l-74 -96h-91l112 144h106z" />
    <glyph glyph-name="udieresis" unicode="&#xfc;" 
d="M488 474v-474h-90v73h-2q-18 -38 -60 -61.5t-96 -23.5q-74 0 -123 45.5t-49 135.5v305h90v-280q0 -63 30.5 -92.5t77.5 -29.5q59 0 95.5 39.5t36.5 118.5v244h90zM176 714q24 0 43 -16.5t19 -40.5q0 -27 -17.5 -45t-44.5 -18t-44.5 18t-17.5 45q0 24 19 40.5t43 16.5z
M380 714q24 0 43 -16.5t19 -40.5q0 -27 -17.5 -45t-44.5 -18t-44.5 18t-17.5 45q0 24 19 40.5t43 16.5z" />
    <glyph glyph-name="yacute" unicode="&#xfd;" horiz-adv-x="500" 
d="M208 -3l-197 477h104l141 -370h2l134 370h97l-225 -576q-28 -72 -61 -105t-101 -33q-48 0 -80 13l11 82q27 -11 54 -11q39 0 57.5 18.5t34.5 59.5zM184 564l104 144h128l-149 -144h-83z" />
    <glyph glyph-name="thorn" unicode="&#xfe;" horiz-adv-x="611" 
d="M68 -228v984h90v-350h2q24 37 69 58.5t96 21.5q108 0 174.5 -70.5t66.5 -178.5q0 -107 -66.5 -178t-174.5 -71q-49 0 -94 21.5t-71 58.5h-2v-296h-90zM314 72q71 0 113.5 46t42.5 119t-42.5 119t-113.5 46t-113.5 -46t-42.5 -119t42.5 -119t113.5 -46z" />
    <glyph glyph-name="ydieresis" unicode="&#xff;" horiz-adv-x="500" 
d="M208 -3l-197 477h104l141 -370h2l134 370h97l-225 -576q-28 -72 -61 -105t-101 -33q-48 0 -80 13l11 82q27 -11 54 -11q39 0 57.5 18.5t34.5 59.5zM148 714q24 0 43 -16.5t19 -40.5q0 -27 -17.5 -45t-44.5 -18t-44.5 18t-17.5 45q0 24 19 40.5t43 16.5zM352 714
q24 0 43 -16.5t19 -40.5q0 -27 -17.5 -45t-44.5 -18t-44.5 18t-17.5 45q0 24 19 40.5t43 16.5z" />
    <glyph glyph-name="dotlessi" unicode="&#x131;" horiz-adv-x="240" 
d="M75 0v474h90v-474h-90z" />
    <glyph glyph-name="Lslash" unicode="&#x141;" horiz-adv-x="519" 
d="M91 0v209l-72 -63v89l72 62v411h96v-328l216 188v-89l-216 -187v-202h325v-90h-421z" />
    <glyph glyph-name="lslash" unicode="&#x142;" horiz-adv-x="240" 
d="M75 0v298l-78 -78v90l78 78v368h90v-278l78 77v-90l-78 -77v-388h-90z" />
    <glyph glyph-name="OE" unicode="&#x152;" horiz-adv-x="981" 
d="M923 90v-90h-456q-192 0 -300.5 98t-108.5 256q0 162 109.5 258t299.5 96h444v-90h-294v-211h276v-90h-276v-227h306zM521 90v528h-61q-141 0 -220.5 -76t-79.5 -188q0 -117 78.5 -190.5t221.5 -73.5h61z" />
    <glyph glyph-name="oe" unicode="&#x153;" horiz-adv-x="926" 
d="M794 135l74 -49q-68 -98 -199 -98q-137 0 -194 92q-18 -24 -35 -40.5t-60.5 -34t-99.5 -17.5q-112 0 -176.5 70t-64.5 179q0 108 68.5 178.5t177.5 70.5q122 0 192 -91q69 91 187 91q101 0 162 -66t61 -172v-44h-359q0 -58 36 -98t107 -40q80 0 123 69zM528 276h263
q-2 55 -35.5 96.5t-93.5 41.5q-59 0 -96.5 -44.5t-37.5 -93.5zM438 237q0 71 -38 121t-112 50t-113.5 -48t-39.5 -123q0 -73 38.5 -122t106.5 -49q84 0 121 48.5t37 122.5z" />
    <glyph glyph-name="Scaron" unicode="&#x160;" 
d="M33 80l79 68q50 -76 150 -76q53 0 97 32t44 86q0 44 -36 70t-87.5 41t-102.5 35t-87 68t-36 124q0 33 14 66.5t41.5 63.5t75.5 49t109 19q138 0 204 -81l-78 -71q-18 28 -51.5 45t-74.5 17q-72 0 -105 -33.5t-33 -74.5q0 -42 26 -69t64.5 -38.5t84 -27.5t84 -33.5
t64.5 -58t26 -100.5q0 -100 -70.5 -159.5t-175.5 -59.5q-71 0 -131 24.5t-95 73.5zM225 748l-112 144h87l78 -96l74 96h91l-112 -144h-106z" />
    <glyph glyph-name="scaron" unicode="&#x161;" horiz-adv-x="444" 
d="M390 408l-70 -53q-38 47 -97 47q-33 0 -56 -14t-23 -39q0 -14 7 -25t15 -17.5t24.5 -12.5t25 -8.5t27.5 -6t22 -4.5q67 -16 102.5 -46t35.5 -92q0 -75 -56.5 -112t-135.5 -37q-61 0 -105 19t-78 65l68 56q56 -56 115 -56q38 0 67 15.5t29 44.5q0 11 -3.5 20.5t-12.5 16.5
t-16 11.5t-21.5 9t-20.5 6.5t-22 5.5t-18 3.5q-34 8 -56 16.5t-44.5 23.5t-33.5 38.5t-11 56.5q0 70 53.5 108t126.5 38q115 0 162 -78zM169 564l-112 144h87l78 -96l74 96h91l-112 -144h-106z" />
    <glyph glyph-name="Ydieresis" unicode="&#x178;" horiz-adv-x="612" 
d="M258 0v302l-268 406h123l193 -311l199 311h117l-268 -406v-302h-96zM204 898q24 0 43 -16.5t19 -40.5q0 -27 -17.5 -45t-44.5 -18t-44.5 18t-17.5 45q0 24 19 40.5t43 16.5zM408 898q24 0 43 -16.5t19 -40.5q0 -27 -17.5 -45t-44.5 -18t-44.5 18t-17.5 45q0 24 19 40.5
t43 16.5z" />
    <glyph glyph-name="Zcaron" unicode="&#x17d;" horiz-adv-x="593" 
d="M32 0v90l403 528h-391v90h511v-90l-401 -528h407v-90h-529zM244 748l-112 144h87l78 -96l74 96h91l-112 -144h-106z" />
    <glyph glyph-name="zcaron" unicode="&#x17e;" horiz-adv-x="463" 
d="M35 0v81l269 315h-260v78h370v-80l-271 -316h285v-78h-393zM179 564l-112 144h87l78 -96l74 96h91l-112 -144h-106z" />
    <glyph glyph-name="florin" unicode="&#x192;" 
d="M449 425v-72h-134l-73 -368q-11 -59 -53.5 -94t-103.5 -35q-47 0 -97 25l38 71q32 -12 54 -12q21 0 35.5 8t22.5 23t12 27.5t7 30.5l63 324h-108v72h122l27 141q14 69 55.5 111.5t97.5 42.5q73 0 117 -24l-40 -75q-22 15 -58 15q-29 0 -52.5 -24t-32.5 -76l-19 -111h120z
" />
    <glyph glyph-name="circumflex" unicode="&#x2c6;" horiz-adv-x="240" 
d="M285 564h-91l-74 96l-74 -96h-91l112 144h106z" />
    <glyph glyph-name="caron" unicode="&#x2c7;" horiz-adv-x="240" 
d="M67 564l-112 144h87l78 -96l74 96h91l-112 -144h-106z" />
    <glyph glyph-name="uni02C9" unicode="&#x2c9;" horiz-adv-x="240" 
d="M264 666v-66h-288v66h288z" />
    <glyph glyph-name="breve" unicode="&#x2d8;" horiz-adv-x="240" 
d="M-37 702h55q6 -36 34.5 -54t68.5 -18t68.5 18t34.5 54h53q-4 -67 -46.5 -102.5t-110.5 -35.5t-110.5 35.5t-46.5 102.5z" />
    <glyph glyph-name="dotaccent" unicode="&#x2d9;" horiz-adv-x="240" 
d="M120 594q-27 0 -44.5 18t-17.5 45q0 24 19 40.5t43 16.5t43 -16.5t19 -40.5q0 -27 -17.5 -45t-44.5 -18z" />
    <glyph glyph-name="ring" unicode="&#x2da;" horiz-adv-x="240" 
d="M18 651q0 41 30.5 70t71.5 29q42 0 72.5 -28.5t29.5 -69.5q1 -42 -29.5 -70.5t-72.5 -28.5q-41 0 -71.5 28.5t-30.5 69.5zM180 651q0 24 -18 40.5t-42 16.5t-42 -16.5t-18 -40.5q0 -23 18 -39.5t42 -16.5t42 16.5t18 39.5z" />
    <glyph glyph-name="ogonek" unicode="&#x2db;" horiz-adv-x="240" 
d="M193 -142l22 -44q-39 -35 -91 -35q-41 0 -69.5 22.5t-29.5 62.5q0 70 93 143h54q-75 -72 -75 -125q4 -43 49 -43q25 0 47 19z" />
    <glyph glyph-name="tilde" unicode="&#x2dc;" horiz-adv-x="240" 
d="M0 576h-48q7 43 33.5 73.5t67.5 30.5q28 0 84 -23q42 -17 54 -17q36 0 49 44h48q-7 -44 -30 -74t-64 -30q-29 0 -81 21q-47 19 -66 19q-33 0 -47 -44z" />
    <glyph glyph-name="hungarumlaut" unicode="&#x2dd;" horiz-adv-x="240" 
d="M-50 564l104 144h127l-149 -144h-82zM119 564l104 144h127l-149 -144h-82z" />
    <glyph glyph-name="uni03A9" unicode="&#x3a9;" horiz-adv-x="716" 
d="M193 71v3q-58 53 -95.5 132t-37.5 176q0 145 85.5 239.5t215.5 94.5q131 0 212 -98t81 -231q0 -100 -39 -182t-95 -131v-3h148v-71h-245v53q61 40 102.5 122t41.5 195q-1 68 -23.5 129t-70.5 102.5t-113 41.5q-95 0 -153.5 -78.5t-58.5 -197.5q0 -106 42.5 -191.5
t101.5 -122.5v-53h-246v71h147z" />
    <glyph glyph-name="uni03BC" unicode="&#x3bc;" 
d="M68 -228v702h90v-280q0 -63 30.5 -92.5t77.5 -29.5q59 0 95.5 39.5t36.5 118.5v244h90v-474h-90v73h-2q-18 -38 -60 -61.5t-96 -23.5q-46 0 -82 18v-234h-90z" />
    <glyph glyph-name="pi" unicode="&#x3c0;" horiz-adv-x="577" 
d="M551 451h-78v-302q0 -93 14 -149h-84q-17 31 -17 142v309h-171q-5 -106 -25.5 -244.5t-46.5 -206.5h-84q27 80 47 214t23 237q-77 0 -108 -12l-13 58q43 29 148 29h403z" />
    <glyph glyph-name="endash" unicode="&#x2013;" horiz-adv-x="500" 
d="M500 282v-78h-500v78h500z" />
    <glyph glyph-name="emdash" unicode="&#x2014;" horiz-adv-x="1000" 
d="M1000 282v-78h-1000v78h1000z" />
    <glyph glyph-name="quoteleft" unicode="&#x2018;" horiz-adv-x="278" 
d="M56 462l84 246h82l-69 -246h-97z" />
    <glyph glyph-name="quoteright" unicode="&#x2019;" horiz-adv-x="278" 
d="M222 708l-84 -246h-82l69 246h97z" />
    <glyph glyph-name="quotesinglbase" unicode="&#x201a;" horiz-adv-x="278" 
d="M222 114l-84 -246h-82l69 246h97z" />
    <glyph glyph-name="quotedblleft" unicode="&#x201c;" horiz-adv-x="519" 
d="M254 708l-69 -246h-97l84 246h82zM431 708l-69 -246h-97l84 246h82z" />
    <glyph glyph-name="quotedblright" unicode="&#x201d;" horiz-adv-x="519" 
d="M254 708l-84 -246h-82l69 246h97zM431 708l-84 -246h-82l69 246h97z" />
    <glyph glyph-name="quotedblbase" unicode="&#x201e;" horiz-adv-x="519" 
d="M254 114l-84 -246h-82l69 246h97zM431 114l-84 -246h-82l69 246h97z" />
    <glyph glyph-name="dagger" unicode="&#x2020;" 
d="M233 -126v553h-198v78h198v203h90v-203h198v-78h-198v-553h-90z" />
    <glyph glyph-name="daggerdbl" unicode="&#x2021;" 
d="M233 -126v192h-192v78h192v306h-192v78h192v180h90v-180h192v-78h-192v-306h192v-78h-192v-192h-90z" />
    <glyph glyph-name="bullet" unicode="&#x2022;" horiz-adv-x="500" 
d="M73 354q0 74 51.5 125.5t125.5 51.5t125.5 -51.5t51.5 -125.5t-51.5 -125.5t-125.5 -51.5t-125.5 51.5t-51.5 125.5z" />
    <glyph glyph-name="ellipsis" unicode="&#x2026;" horiz-adv-x="1000" 
d="M167 -6q-27 0 -46.5 19.5t-19.5 46.5t19.5 46.5t46.5 19.5t46.5 -19.5t19.5 -46.5t-19.5 -46.5t-46.5 -19.5zM500 -6q-27 0 -46.5 19.5t-19.5 46.5t19.5 46.5t46.5 19.5t46.5 -19.5t19.5 -46.5t-19.5 -46.5t-46.5 -19.5zM833 -6q-27 0 -46.5 19.5t-19.5 46.5t19.5 46.5
t46.5 19.5t46.5 -19.5t19.5 -46.5t-19.5 -46.5t-46.5 -19.5z" />
    <glyph glyph-name="perthousand" unicode="&#x2030;" horiz-adv-x="1056" 
d="M507 -18q-67 0 -114.5 47.5t-47.5 115.5q0 67 47.5 114.5t114.5 47.5q68 0 115.5 -47.5t47.5 -114.5t-48 -115t-115 -48zM507 54q37 0 64 27t27 64t-26.5 63.5t-64.5 26.5q-37 0 -63.5 -26.5t-26.5 -63.5q0 -38 26.5 -64.5t63.5 -26.5zM711 145q0 67 47.5 114.5
t114.5 47.5q68 0 115.5 -47.5t47.5 -114.5t-48 -115t-115 -48t-114.5 47.5t-47.5 115.5zM873 54q37 0 64 27t27 64t-26.5 63.5t-64.5 26.5q-37 0 -63.5 -26.5t-26.5 -63.5q0 -38 26.5 -64.5t63.5 -26.5zM20 558q0 68 47 115t115 47t115.5 -47.5t47.5 -114.5
q0 -68 -47.5 -115.5t-115.5 -47.5q-67 0 -114.5 47.5t-47.5 115.5zM92 558q0 -38 26.5 -64.5t63.5 -26.5q38 0 64.5 26.5t26.5 64.5q0 37 -26.5 63.5t-64.5 26.5t-64 -26t-26 -64zM598 710l-443 -741l-62 31l445 740z" />
    <glyph glyph-name="guilsinglleft" unicode="&#x2039;" horiz-adv-x="315" 
d="M200 27l-146 216l145 216l62 -41l-117 -175l118 -175z" />
    <glyph glyph-name="guilsinglright" unicode="&#x203a;" horiz-adv-x="315" 
d="M116 27l-62 41l117 175l-118 175l62 41l146 -216z" />
    <glyph glyph-name="fraction" unicode="&#x2044;" horiz-adv-x="167" 
d="M333 708l-439 -740l-60 32l439 740z" />
    <glyph glyph-name="Euro" unicode="&#x20ac;" 
d="M525 684l-21 -75q-46 34 -131 34q-139 0 -182 -160h276l-17 -67h-271q-4 -31 -4 -73v-25q0 -16 1 -23h242l-17 -65h-219q13 -85 53 -126.5t114 -41.5q76 0 125 59l49 -49q-28 -37 -75 -60.5t-103 -23.5q-212 0 -250 242h-72l19 65h46q-1 8 -1 24v27q0 37 3 70h-66l21 67
h57q27 117 100 177t175 60q88 0 148 -36z" />
    <glyph glyph-name="afii61289" unicode="&#x2113;" horiz-adv-x="492" 
d="M430 158l39 -36q-67 -129 -191 -129q-82 0 -123 50.5t-46 131.5v13l-56 -46l-25 49q73 63 80 70v271q0 127 46 186.5t114 59.5q62 0 94.5 -47t32.5 -120q0 -165 -204 -366v-36q1 -74 30.5 -110.5t74.5 -36.5q42 0 76.5 28t57.5 68zM191 537v-208q146 162 146 282
q0 102 -68 102q-32 0 -55 -42t-23 -134z" />
    <glyph glyph-name="trademark" unicode="&#x2122;" horiz-adv-x="1000" 
d="M158 296v346h-124v66h326v-66h-124v-346h-78zM439 296v412h119l111 -316h3l111 316h119v-412h-78v344h-2l-120 -344h-63l-120 344h-2v-344h-78z" />
    <glyph glyph-name="Omega" unicode="&#x2126;" horiz-adv-x="716" 
d="M193 71v3q-58 53 -95.5 132t-37.5 176q0 145 85.5 239.5t215.5 94.5q131 0 212 -98t81 -231q0 -100 -39 -182t-95 -131v-3h148v-71h-245v53q61 40 102.5 122t41.5 195q-1 68 -23.5 129t-70.5 102.5t-113 41.5q-95 0 -153.5 -78.5t-58.5 -197.5q0 -106 42.5 -191.5
t101.5 -122.5v-53h-246v71h147z" />
    <glyph glyph-name="estimated" unicode="&#x212e;" horiz-adv-x="883" 
d="M847 344h-658q-5 0 -5 -5v-199q0 -12 8 -23q105 -108 249 -108q77 0 145 32.5t117 88.5h59q-56 -65 -141 -103t-181 -38q-168 0 -287 107t-119 258t119 258.5t287 107.5q169 0 288 -107t119 -259v-10zM698 370v200q0 14 -10 24q-106 104 -247 104q-143 0 -248 -107
q-9 -11 -9 -25v-196q0 -7 5 -7h505q4 0 4 7z" />
    <glyph glyph-name="partialdiff" unicode="&#x2202;" horiz-adv-x="552" 
d="M102 672l-28 64q72 57 170 57q108 0 183 -99t75 -283q0 -187 -69.5 -303t-195.5 -116q-93 0 -144 70.5t-51 164.5q0 116 62 187.5t151 71.5q59 0 101.5 -30.5t59.5 -61.5h1q1 11 1 42q0 123 -53 204t-130 81q-73 0 -133 -49zM245 65h1q64 0 107.5 73t53.5 174
q-12 37 -49.5 70.5t-87.5 33.5q-59 0 -101 -56t-42 -134q0 -71 32.5 -116t85.5 -45z" />
    <glyph glyph-name="Delta" unicode="&#x2206;" horiz-adv-x="649" 
d="M30 0v57l246 666h101l241 -665v-58h-588zM119 71h407l-137 366q-7 23 -32 92.5t-32 94.5h-4q-5 -21 -28 -84.5t-30 -86.5z" />
    <glyph glyph-name="product" unicode="&#x220f;" horiz-adv-x="704" 
d="M677 626h-107v-723h-86v723h-266v-723h-85v723h-107v79h651v-79z" />
    <glyph glyph-name="summation" unicode="&#x2211;" horiz-adv-x="554" 
d="M532 -97h-509v57l263 343l-252 341v61h483v-74h-364v-4l231 -311l-252 -328v-4h400v-81z" />
    <glyph glyph-name="minus" unicode="&#x2212;" horiz-adv-x="666" 
d="M66 342h534v-78h-534v78z" />
    <glyph glyph-name="uni2215" unicode="&#x2215;" horiz-adv-x="167" 
d="M333 708l-439 -740l-60 32l439 740z" />
    <glyph glyph-name="uni2219" unicode="&#x2219;" horiz-adv-x="278" 
d="M73 303q0 27 19.5 46.5t46.5 19.5t46.5 -19.5t19.5 -46.5t-19.5 -46.5t-46.5 -19.5t-46.5 19.5t-19.5 46.5z" />
    <glyph glyph-name="radical" unicode="&#x221a;" horiz-adv-x="577" 
d="M578 840l-222 -989h-74l-158 463l-74 -28l-16 51l144 57l122 -363q2 -11 9 -38t9 -39h1q1 9 3.5 21.5t5.5 29.5t5 27l183 808h62z" />
    <glyph glyph-name="infinity" unicode="&#x221e;" horiz-adv-x="780" 
d="M729 293v-1q0 -72 -46 -117.5t-109 -45.5q-46 0 -88 28t-95 91q-33 -38 -55.5 -60t-58.5 -40.5t-75 -18.5q-62 0 -107 46t-45 113q0 70 45.5 116t113.5 46q52 0 95 -30.5t90 -87.5q58 64 84 83q49 35 103 35q65 0 106.5 -43.5t41.5 -113.5zM209 182h1q11 0 23 3t21.5 6.5
t21 12l18.5 13.5t19 17t16.5 17l17 18.5t15.5 16.5q-31 39 -46.5 56.5t-47 37t-64.5 19.5q-46 0 -72.5 -32t-26.5 -80q0 -44 29.5 -74.5t74.5 -30.5zM575 399h-1q-19 0 -37 -7t-36 -21.5t-29 -25t-28.5 -30.5t-21.5 -24q53 -61 85.5 -85t69.5 -24q44 0 70.5 32.5t26.5 73.5
q0 51 -27.5 81t-71.5 30z" />
    <glyph glyph-name="integral" unicode="&#x222b;" horiz-adv-x="367" 
d="M349 851l-13 -61q-15 10 -36 10q-33 0 -51 -24q-32 -40 -32 -178q0 -78 7 -248t7 -255q0 -136 -42 -204q-33 -56 -106 -56q-38 0 -68 16l14 63q27 -12 45 -12q28 0 46 23q32 42 32 170q0 86 -7 258.5t-7 252.5q0 85 12.5 135.5t42.5 81.5q38 41 100 41q32 0 56 -13z" />
    <glyph glyph-name="approxequal" unicode="&#x2248;" horiz-adv-x="561" 
d="M481 439l34 -30q-50 -98 -130 -98q-28 0 -51.5 9.5t-64.5 32.5q-59 34 -92 34q-31 0 -53 -19t-45 -55l-35 29q23 45 59.5 71.5t79.5 26.5q17 0 35 -5t27.5 -9t27.5 -14.5t21 -11.5l16.5 -9.5l16 -9t14 -7t15.5 -6t14 -3t17 -1.5q29 0 50 18t44 57zM481 264l34 -30
q-50 -97 -130 -97q-28 0 -51.5 9.5t-64.5 32.5q-59 34 -92 34q-32 0 -53 -19t-45 -56l-35 30q23 45 59.5 71.5t79.5 26.5q17 0 35.5 -5t28 -9.5t27 -14t20.5 -11.5q4 -2 18 -10l19.5 -11t16.5 -7.5t20 -6t19 -1.5q29 0 50 18t44 56z" />
    <glyph glyph-name="notequal" unicode="&#x2260;" horiz-adv-x="561" 
d="M401 509l-44 -96h153v-54h-174l-66 -145h240v-54h-261l-53 -117l-43 19l44 98h-147v54h169l65 145h-234v54h256l52 115z" />
    <glyph glyph-name="lessequal" unicode="&#x2264;" horiz-adv-x="561" 
d="M507 98l-451 226v58l451 226v-65l-394 -188v-2l394 -190v-65zM510 2h-459v56h459v-56z" />
    <glyph glyph-name="greaterequal" unicode="&#x2265;" horiz-adv-x="561" 
d="M57 608l451 -226v-58l-451 -226v65l394 189v2l-394 189v65zM509 2h-457v56h457v-56z" />
    <glyph glyph-name="lozenge" unicode="&#x25ca;" horiz-adv-x="577" 
d="M523 352l-201 -398h-70l-198 398l201 399h70zM445 350l-137 273q-14 37 -18 55h-3q-12 -38 -20 -55l-135 -269l137 -276q14 -36 17 -53h4q13 42 18 52z" />
    </font>
</defs>
</svg>
